<?xml version="1.0" encoding="UTF-8" standalone="no"?>
<svg
   xmlns:dc="http://purl.org/dc/elements/1.1/"
   xmlns:cc="http://creativecommons.org/ns#"
   xmlns:rdf="http://www.w3.org/1999/02/22-rdf-syntax-ns#"
   xmlns:svg="http://www.w3.org/2000/svg"
   xmlns="http://www.w3.org/2000/svg"
   xmlns:sodipodi="http://sodipodi.sourceforge.net/DTD/sodipodi-0.dtd"
   xmlns:inkscape="http://www.inkscape.org/namespaces/inkscape"
   enable-background="new 0 0 380 380"
   version="1.1"
   viewBox="0 0 380 380"
   xml:space="preserve"
   id="svg12"
   sodipodi:docname="hotel.svg"
   inkscape:version="0.92.4 (5da689c313, 2019-01-14)"><metadata
   id="metadata18"><rdf:RDF><cc:Work
       rdf:about=""><dc:format>image/svg+xml</dc:format><dc:type
         rdf:resource="http://purl.org/dc/dcmitype/StillImage" /></cc:Work></rdf:RDF></metadata><defs
   id="defs16" /><sodipodi:namedview
   pagecolor="#ffffff"
   bordercolor="#666666"
   borderopacity="1"
   objecttolerance="10"
   gridtolerance="10"
   guidetolerance="10"
   inkscape:pageopacity="0"
   inkscape:pageshadow="2"
   inkscape:window-width="716"
   inkscape:window-height="480"
   id="namedview14"
   showgrid="false"
   inkscape:zoom="0.62105263"
   inkscape:cx="-71.652543"
   inkscape:cy="190"
   inkscape:window-x="0"
   inkscape:window-y="0"
   inkscape:window-maximized="0"
   inkscape:current-layer="svg12" />
<g
   fill="#fc3070"
   id="g10"
   style="fill:#efb14e;fill-opacity:1">
	<path
   d="m303.84 353.36v-246.49h7.697v-42.747h-243.07v42.747h7.697v246.49h-14.403v26.64h256.48v-26.64h-14.403zm-158.68-16.495h-40.424v-40.424h40.424v40.424zm0-58.545h-40.424v-40.424h40.424v40.424zm0-58.545h-40.424v-40.424h40.424v40.424zm0-58.545h-40.424v-40.424h40.424v40.424zm65.051 192.13h-40.426v-56.919h40.426v56.919zm0-75.04h-40.426v-40.424h40.426v40.424zm0-58.545h-40.426v-40.424h40.426v40.424zm0-58.545h-40.426v-40.424h40.426v40.424zm65.049 175.64h-40.424v-40.424h40.424v40.424zm0-58.545h-40.424v-40.424h40.424v40.424zm0-58.545h-40.424v-40.424h40.424v40.424zm0-58.545h-40.424v-40.424h40.424v40.424z"
   id="path2"
   style="fill:#efb14e;fill-opacity:1" />
	<polygon
   points="111.37 55.757 129.49 46.232 147.61 55.757 144.15 35.584 158.8 21.297 138.55 18.354 129.49 0 120.43 18.354 100.18 21.297 114.83 35.584"
   id="polygon4"
   style="fill:#efb14e;fill-opacity:1" />
	<polygon
   points="171.88 55.757 190 46.232 208.12 55.757 204.66 35.584 219.31 21.297 199.06 18.354 190 0 180.94 18.354 160.69 21.297 175.34 35.584"
   id="polygon6"
   style="fill:#efb14e;fill-opacity:1" />
	<polygon
   points="232.39 55.757 250.51 46.232 268.63 55.757 265.17 35.584 279.82 21.297 259.57 18.354 250.51 0 241.45 18.354 221.2 21.297 235.85 35.584"
   id="polygon8"
   style="fill:#efb14e;fill-opacity:1" />
</g>















</svg>