<?xml version="1.0" encoding="UTF-8" standalone="no"?>
<svg
   xmlns:dc="http://purl.org/dc/elements/1.1/"
   xmlns:cc="http://creativecommons.org/ns#"
   xmlns:rdf="http://www.w3.org/1999/02/22-rdf-syntax-ns#"
   xmlns:svg="http://www.w3.org/2000/svg"
   xmlns="http://www.w3.org/2000/svg"
   xmlns:sodipodi="http://sodipodi.sourceforge.net/DTD/sodipodi-0.dtd"
   xmlns:inkscape="http://www.inkscape.org/namespaces/inkscape"
   width="696"
   height="191"
   data-name="Layer 1"
   version="1.1"
   viewBox="0 0 696 191"
   id="svg11755"
   sodipodi:docname="logo_white.svg"
   inkscape:version="0.92.4 (5da689c313, 2019-01-14)">
  <metadata
     id="metadata11759">
    <rdf:RDF>
      <cc:Work
         rdf:about="">
        <dc:format>image/svg+xml</dc:format>
        <dc:type
           rdf:resource="http://purl.org/dc/dcmitype/StillImage" />
        <dc:title>logotip yazi ile</dc:title>
      </cc:Work>
    </rdf:RDF>
  </metadata>
  <sodipodi:namedview
     pagecolor="#ffffff"
     bordercolor="#666666"
     borderopacity="1"
     objecttolerance="10"
     gridtolerance="10"
     guidetolerance="10"
     inkscape:pageopacity="0"
     inkscape:pageshadow="2"
     inkscape:window-width="1920"
     inkscape:window-height="1017"
     id="namedview11757"
     showgrid="false"
     inkscape:zoom="3.2643678"
     inkscape:cx="212.91274"
     inkscape:cy="72.852883"
     inkscape:window-x="-8"
     inkscape:window-y="-8"
     inkscape:window-maximized="1"
     inkscape:current-layer="svg11755" />
  <defs
     id="defs11723">
    <style
       id="style11721">.cls-1{fill:#fec864;}.cls-2{fill:#efb14e;}.cls-3{fill:#f3c593;}.cls-4{fill:#005fff;}.cls-5{fill:#0063fd;}</style>
  </defs>
  <title
     id="title11725">logotip yazi ile</title>
  <path
     class="cls-1"
     d="m95.5 0a95.5 95.5 0 1 0 95.5 95.5 95.5 95.5 0 0 0-95.5-95.5zm61.5 37 11 15-17-6v-8l-2-9zm-41-22 3.5-2.5 4 4h5l1 2 2-1 5 4h-14l-2 2-10-11zm24.5 15.5v13l-12-8 7-9zm-39.5-14.5 8 10h-19zm-31-3h8l1-4 12 1-9 10-6-1-4-3h-6zm-9.5 10.5 11 4-7 6h-8zm-10-3-4 13-3 3-15 3zm-13.5 27.5v7l-6 8-1-8-3-6zm-2 87-13-7v-3h2v-8l7 7v6zm-10.5-54.5v11l-3 8-7-12 9.65-6.76zm-11-17 6-12-1.5 11.5 2.5 7.5-9 7zm3 52-2.56 3.2-1.94 7.3 0.09-6.05-2.59-3.45v-11l-3-4v-7l10 12zm18.5 43.5-14-18 4-2 5 5h3l3 5zm60.5-122a58.5 58.5 0 1 1-58.5 58.5 58.5 58.5 0 0 1 58.5-58.5zm-47.5 118-3-4 1-3 6 3 5 2 2 5h-6l-4 4zm23.5 24.5-3-3-6-1-13-5h11l5-5 11 13zm6.5-15.5 14-1 1 2 3 1-10 9zm40 13-3 2h-9l-13 3 14-13 16 6zm13-20-1 1-1 6-5 3v-3h-8l6-7 5 1 4-4zm5 14 4-6v-8l6-6 13 1zm12-27-2-2 3-1v-5l7-7 3 11zm12-41v-2h4v-8l9 9-9 9v-8zm6 34v-17l12-9zm2.5-56.5 3-3v-9l0.5 0.5h4v10l3.5 0.5v15z"
     fill="#fec864"
     id="path11727"
     style="fill:#ffffff;fill-opacity:1" />
  <path
     class="cls-2"
     d="m95.5 37a58.5 58.5 0 1 0 58.5 58.5 58.5 58.5 0 0 0-58.5-58.5zm0 114a55.5 55.5 0 1 1 55.5-55.5 55.5 55.5 0 0 1-55.5 55.5z"
     fill="#efb14e"
     id="path11729"
     style="fill:#4569db;fill-opacity:0" />
  <circle
     class="cls-3"
     cx="95.48"
     cy="95.5"
     r="55.5"
     fill="#f3c593"
     id="circle11731"
     style="fill:#4569db;fill-opacity:0" />
  <path
     class="cls-4"
     d="m67.98 68v59h12v-31l14 31h2l13-31 1 31h15v-57h-17l-12 28-11-30z"
     fill="#005fff"
     id="path11733"
     style="fill:#ffffff;fill-opacity:1" />
  <g
     transform="translate(213.89 -168.06)"
     fill="#0063fd"
     id="g11753"
     style="fill:#ffffff;fill-opacity:1">
    <path
       class="cls-5"
       d="m55.44 295.56c-1.07-9.12-2.14-18.15-3.21-27.19l-0.62-0.08q-3 11-6 21.92c-1.54 5.66-1.52 5.66-7.45 5.66-2.84 0-5.69-0.12-8.52 0-2.14 0.13-3-0.62-3.43-2.75a243.27 243.27 0 0 0-6.1-23.78l-3.11 26.33h-17l6.54-60.58c7.34 0 14.46-0.07 21.58 0.11 0.7 0 1.72 1.49 2 2.45 2.32 8.3 4.51 16.64 7 26.11 0.72-2.45 1.2-3.87 1.57-5.33 1.75-6.93 3.41-13.89 5.28-20.78 0.27-1 1.51-2.44 2.34-2.46 7-0.2 14-0.11 21.32-0.11 2.2 20.24 4.37 40.19 6.57 60.48z"
       id="path11735"
       style="fill:#ffffff;fill-opacity:1" />
    <path
       class="cls-5"
       d="m160.65 269.6 10.52 26h-18.87l-9.19-22.62-0.85 0.15v22.5h-18.15v-60.56h4.29c6.91 0 13.82-0.06 20.72 0.08 9.65 0.21 15.92 4 18.39 11 3.13 8.91 0.87 16.96-6.86 23.45zm-18.45-8.17c2.82-1.36 5.83-1.85 6.68-3.47a8.67 8.67 0 0 0-0.14-7.17c-0.89-1.58-3.9-2-6.54-3.13z"
       id="path11737"
       style="fill:#ffffff;fill-opacity:1" />
    <path
       class="cls-5"
       d="m283.63 269.6 10.52 26h-18.87l-9.24-22.67-0.85 0.15v22.5h-18.08v-60.51h4.29c6.9 0 13.82-0.06 20.72 0.08 9.65 0.21 15.92 4 18.39 11 3.11 8.91 0.85 16.96-6.88 23.45zm-18.44-9.25c3.12 0.1 6.13 0.28 7-2.77 0.6-2.14 0.59-5.17-0.53-6.89-1-1.55-3.92-1.86-6.46-2.91z"
       id="path11739"
       style="fill:#ffffff;fill-opacity:1" />
    <path
       class="cls-5"
       d="m310.63 235.08c6.86 0 13.38-0.06 19.91 0.07a3 3 0 0 1 2.25 1.73c5.21 19.49 10.31 39 15.49 58.79h-18.37c-0.77-2.27-1.08-6.13-2.41-6.52-3.41-1-7.29-0.65-11-0.5-4.7 0.18-1.94 4.87-4.47 7h-16.64zm6.5 39.9h7.62c-1.27-5.55-2.48-10.88-3.69-16.2h-0.55z"
       id="path11741"
       style="fill:#ffffff;fill-opacity:1" />
    <path
       class="cls-5"
       d="m362.82 295.66c-5.41-20-10.82-40.07-16.3-60.39h18.91c2.82 10.68 5.63 21.35 8.74 33.15 3.1-11.75 5.92-22.41 8.75-33.14h16.31c-5.33 20.27-10.58 40.24-15.87 60.38z"
       id="path11743"
       style="fill:#ffffff;fill-opacity:1" />
    <path
       class="cls-5"
       d="m99.52 272.28v10.13h17.72v13.27h-36v-60.3h35.92v13h-17.65v10.64h16.08v13.26z"
       id="path11745"
       style="fill:#ffffff;fill-opacity:1" />
    <path
       class="cls-5"
       d="m441.04 235.31v13.09h-17.71v10.51h15.94v13.26h-15.91v10.14h17.56v13.31h-35.88v-60.31z"
       id="path11747"
       style="fill:#ffffff;fill-opacity:1" />
    <path
       class="cls-5"
       d="m228.33 295.71h-18.29v-46.72c-3.38 0-6.42-0.09-9.45 0-2.08 0.09-2.87-0.68-2.81-2.76 0.11-3.56 0-7.13 0-10.94h42.39v13.65h-11.84z"
       id="path11749"
       style="fill:#ffffff;fill-opacity:1" />
    <path
       class="cls-5"
       d="m466.65 282.36h15.46v13.29h-33.39v-60.38h17.93z"
       id="path11751"
       style="fill:#ffffff;fill-opacity:1" />
  </g>
</svg>
