<?xml version="1.0" encoding="UTF-8" standalone="no"?>
<!-- Generator: Adobe Illustrator 19.0.0, SVG Export Plug-In . SVG Version: 6.00 Build 0)  -->

<svg
   xmlns:dc="http://purl.org/dc/elements/1.1/"
   xmlns:cc="http://creativecommons.org/ns#"
   xmlns:rdf="http://www.w3.org/1999/02/22-rdf-syntax-ns#"
   xmlns:svg="http://www.w3.org/2000/svg"
   xmlns="http://www.w3.org/2000/svg"
   xmlns:sodipodi="http://sodipodi.sourceforge.net/DTD/sodipodi-0.dtd"
   xmlns:inkscape="http://www.inkscape.org/namespaces/inkscape"
   version="1.1"
   id="Layer_1"
   x="0px"
   y="0px"
   viewBox="0 0 512 512"
   style="enable-background:new 0 0 512 512;"
   xml:space="preserve"
   sodipodi:docname="send.svg"
   inkscape:version="0.92.4 (5da689c313, 2019-01-14)"><metadata
   id="metadata10510"><rdf:RDF><cc:Work
       rdf:about=""><dc:format>image/svg+xml</dc:format><dc:type
         rdf:resource="http://purl.org/dc/dcmitype/StillImage" /><dc:title /></cc:Work></rdf:RDF></metadata><defs
   id="defs10508" /><sodipodi:namedview
   pagecolor="#ffffff"
   bordercolor="#666666"
   borderopacity="1"
   objecttolerance="10"
   gridtolerance="10"
   guidetolerance="10"
   inkscape:pageopacity="0"
   inkscape:pageshadow="2"
   inkscape:window-width="1920"
   inkscape:window-height="1017"
   id="namedview10506"
   showgrid="false"
   inkscape:zoom="0.4609375"
   inkscape:cx="-449.08475"
   inkscape:cy="256"
   inkscape:window-x="-8"
   inkscape:window-y="-8"
   inkscape:window-maximized="1"
   inkscape:current-layer="Layer_1" />
<g
   id="g10461"
   style="fill:#efb14e;fill-opacity:1">
	<g
   id="g10459"
   style="fill:#efb14e;fill-opacity:1">
		<path
   d="M501.801,139.942H171.312c-5.633,0-10.199,4.566-10.199,10.199v19.235h-97.21c-5.633,0-10.199,4.566-10.199,10.199    c0,5.633,4.566,10.199,10.199,10.199h97.21v132.452h-58.101c-5.633,0-10.199,4.566-10.199,10.199s4.566,10.199,10.199,10.199    h58.101v19.235c0,5.633,4.566,10.199,10.199,10.199h330.489c5.633,0,10.199-4.566,10.199-10.199V150.141    C512,144.508,507.434,139.942,501.801,139.942z M476.641,160.34l-140.07,114.985L197.14,160.34H476.641z M491.602,351.661h-310.09    v-177.77l148.556,122.51c1.884,1.553,4.186,2.331,6.489,2.331c2.295,0,4.591-0.772,6.471-2.316L491.602,174.45V351.661z"
   id="path10457"
   style="fill:#efb14e;fill-opacity:1" />
	</g>
</g>
<g
   id="g10467"
   style="fill:#efb14e;fill-opacity:1">
	<g
   id="g10465"
   style="fill:#efb14e;fill-opacity:1">
		<path
   d="M119.673,244.768H10.199C4.566,244.768,0,249.334,0,254.967c0,5.633,4.566,10.199,10.199,10.199h109.474    c5.633,0,10.199-4.566,10.199-10.199C129.873,249.334,125.306,244.768,119.673,244.768z"
   id="path10463"
   style="fill:#efb14e;fill-opacity:1" />
	</g>
</g>
<g
   id="g10473"
   style="fill:#efb14e;fill-opacity:1">
	<g
   id="g10471"
   style="fill:#efb14e;fill-opacity:1">
		<path
   d="M69.355,322.227h-5.451c-5.633,0-10.199,4.566-10.199,10.199c0,5.633,4.566,10.199,10.199,10.199h5.451    c5.633,0,10.199-4.566,10.199-10.199C79.554,326.793,74.988,322.227,69.355,322.227z"
   id="path10469"
   style="fill:#efb14e;fill-opacity:1" />
	</g>
</g>
<g
   id="g10475">
</g>
<g
   id="g10477">
</g>
<g
   id="g10479">
</g>
<g
   id="g10481">
</g>
<g
   id="g10483">
</g>
<g
   id="g10485">
</g>
<g
   id="g10487">
</g>
<g
   id="g10489">
</g>
<g
   id="g10491">
</g>
<g
   id="g10493">
</g>
<g
   id="g10495">
</g>
<g
   id="g10497">
</g>
<g
   id="g10499">
</g>
<g
   id="g10501">
</g>
<g
   id="g10503">
</g>
</svg>