<?xml version="1.0"?>
<svg xmlns="http://www.w3.org/2000/svg" viewBox="0 -20 512 511" class=""><g><path d="m303 291.289062c0 11.285157-11.714844 20.007813-23 20.007813h-30.410156l-58.933594 74c-2.515625 3.160156-6.335938 5-10.375 5h-.003906c-9.765625 0-16.183594-10.203125-11.953125-19.007813l28.839843-59.992187h-47.953124l-17.386719 18.476563c-1.515625 1.609374-3.632813 2.523437-5.847657 2.523437h-.945312c-4.433594 0-8.03125-3.59375-8.03125-8.027344v-66.910156c0-4.445313 3.617188-8.046875 8.0625-8.027344 2.246094.007813 4.386719.957031 5.902344 2.617188l17.640625 19.347656h48.628906l-28.878906-59.96875c-4.242188-8.808594 2.179687-19.023437 11.953125-19.019531 4.027344.003906 7.832031 1.832031 10.347656 4.976562l59.253906 74.011719h30.089844c11.285156 0 23 8.703125 23 19.992187zm169 1.007813c0 14.214844 10.085938 26.578125 23.980469 29.398437 9.320312 1.894532 16.019531 10.089844 16.019531 19.601563v51c0 44.113281-35.886719 80-80 80h-352c-44.113281 0-80-35.886719-80-80v-51c0-9.511719 6.699219-17.707031 16.019531-19.601563 13.894531-2.820312 23.980469-15.183593 23.980469-29.398437 0-14.210937-10.085938-26.574219-23.980469-29.398437-9.320312-1.890626-16.019531-10.085938-16.019531-19.597657v-92.90625c0-18.109375 6.234375-35.867187 17.554688-50.003906 11.316406-14.136719 27.28125-24.101563 44.953124-28.0625l312.804688-70.089844c.039062-.011719.078125-.019531.117188-.027343 34.738281-7.566407 70.371093 10.519531 84.726562 43.003906 4.464844 10.101562-.105469 21.910156-10.210938 26.375-10.101562 4.464844-21.910156-.105469-26.375-10.207032-6.703124-15.164062-23.339843-23.609374-39.578124-20.097656l-312.738282 70.078125c-2.851562.636719-5.570312 1.5625-8.125 2.742188 5.441406-1.175781 11.082032-1.808594 16.871094-1.808594h352c44.109375 0 80 35.890625 80 80v51.003906c0 9.511719-6.699219 17.707031-16.023438 19.597657-13.890624 2.824218-23.976562 15.1875-23.976562 29.398437zm0-100c0-22.054687-17.945312-40-40-40h-49c0 11.046875-8.953125 20-20 20s-20-8.953125-20-20h-263c-22.054688 0-40 17.945313-40 40v36.753906c23.90625 11.382813 40 35.84375 40 63.246094 0 27.40625-16.09375 51.863281-40 63.25v36.75c0 22.058594 17.945312 40 40 40h263c0-11.042969 8.953125-20 20-20s20 8.957031 20 20h49c22.054688 0 40-17.941406 40-40v-36.75c-23.90625-11.386719-40-35.84375-40-63.25 0-27.402344 16.09375-51.863281 40-63.246094zm-109 10c-11.046875 0-20 8.957031-20 20 0 11.046875 8.953125 20 20 20s20-8.953125 20-20c0-11.042969-8.953125-20-20-20zm0 70c-11.046875 0-20 8.957031-20 20 0 11.046875 8.953125 20 20 20s20-8.953125 20-20c0-11.042969-8.953125-20-20-20zm0 70c-11.046875 0-20 8.957031-20 20 0 11.046875 8.953125 20 20 20s20-8.953125 20-20c0-11.042969-8.953125-20-20-20zm0 0" data-original="#000000" class="active-path" data-old_color="#000000" fill="#E81935"/></g> </svg>
