<?xml version="1.0"?>
<svg xmlns="http://www.w3.org/2000/svg" viewBox="0 0 60 60"><g><g id="022---Booking-Travel-Online"><circle id="Oval" cx="30" cy="45" r="1" data-original="#000000" class="active-path" data-old_color="#000000" fill="#E81935"/><path id="Shape" d="m57 4h-4v-1c0-1.65685425-1.3431458-3-3-3h-40c-1.65685425 0-3 1.34314575-3 3v1h-4c-1.65685425 0-3 1.34314575-3 3v40c0 1.6568542 1.34314575 3 3 3h17v3h-5c-2.209139 0-4 1.790861-4 4v1c0 1.1045695.8954305 2 2 2h34c1.1045695 0 2-.8954305 2-2v-1c0-2.209139-1.790861-4-4-4h-5v-3h17c1.6568542 0 3-1.3431458 3-3v-40c0-1.65685425-1.3431458-3-3-3zm0 2c.5522847 0 1 .44771525 1 1v33h-5v-34zm-48 4h42v30h-42zm0-7c0-.55228475.44771525-1 1-1h40c.5522847 0 1 .44771525 1 1v5h-42zm-6 3h4v34h-5v-33c0-.55228475.44771525-1 1-1zm44 51v1h-34v-1c0-1.1045695.8954305-2 2-2h30c1.1045695 0 2 .8954305 2 2zm-9-4h-16v-3h16zm19-5h-54c-.55228475 0-1-.4477153-1-1v-5h56v5c0 .5522847-.4477153 1-1 1z" data-original="#000000" class="active-path" data-old_color="#000000" fill="#E81935"/><circle id="Oval" cx="12" cy="5" r="1" data-original="#000000" class="active-path" data-old_color="#000000" fill="#E81935"/><circle id="Oval" cx="16" cy="5" r="1" data-original="#000000" class="active-path" data-old_color="#000000" fill="#E81935"/><circle id="Oval" cx="20" cy="5" r="1" data-original="#000000" class="active-path" data-old_color="#000000" fill="#E81935"/><path id="Shape" d="m41 12c-2.8563019.0036416-5.4939803 1.5298715-6.9205541 4.0044141-1.4265738 2.4745425-1.4256003 5.5219553.0025541 7.9955859h-3.463l-3.448-6.895c-.3369763-.67921-1.0307971-1.1077578-1.789-1.105h-1.382c-1.1045695 0-2 .8954305-2 2v6h-4.219l-1.619-6.478c-.2199846-.893763-1.0215623-1.521982-1.942-1.522h-1.22c-1.1045695 0-2 .8954305-2 2v10c0 1.6568542 1.3431458 3 3 3h8v5c0 1.1045695.8954305 2 2 2h1.382c.757085.0036993 1.4506196-.4227333 1.789-1.1l2.948-5.9h6.881c.8067176-.0002057 1.5790275-.3268164 2.1411146-.9054798.5620871-.5786635.8661198-1.3601372.8428854-2.1665202 2.9658217.4001099 5.9069524-.8885853 7.6232425-3.3402244s1.9206995-5.6561987.5298174-8.3060351c-1.3908821-2.6498365-4.1444382-4.301779-7.1370599-4.2817405zm-17 6h1.382l3 6h-4.382zm13 11h-6.009c.0029866-.4630066-.314105-.866755-.7646273-.9735898-.4505223-.1068347-.9151417.1115425-1.1203727.5265898l-3.724 7.447h-1.382v-7c0-.5522847-.4477153-1-1-1s-1 .4477153-1 1h-8c-.5522847 0-1-.4477153-1-1v-10h1.22l1.513 6.053c-.4800113.1310361-.788434.5976963-.7208322 1.090658.0676019.4929618.490266.8593651.9878322.856342 21.243 0 19.209-.03 19.8.071.6009882.5146004 1.2749909.9372001 2 1.254.2388069.3107592.2828396.7293074.1139311 1.0829596-.1689086.3536522-.5221297.5824673-.9139311.5920404zm4-3c-3.3137085 0-6-2.6862915-6-6s2.6862915-6 6-6 6 2.6862915 6 6c-.0033074 3.3123376-2.6876624 5.9966926-6 6z" data-original="#000000" class="active-path" data-old_color="#000000" fill="#E81935"/><path id="Shape" d="m42.2 17.4-2.308 3.078-.185-.185c-.3923789-.3789722-1.0160848-.3735524-1.4018186.0121814s-.3911536 1.0094397-.0121814 1.4018186c1.028 1.028 1.187 1.293 1.707 1.293.3147573 0 .6111456-.1481942.8-.4l3-4c.3313708-.4418278.2418278-1.0686292-.2-1.4s-1.0686292-.2418278-1.4.2z" data-original="#000000" class="active-path" data-old_color="#000000" fill="#E81935"/></g></g> </svg>
