<?xml version="1.0"?>
<svg xmlns="http://www.w3.org/2000/svg" xmlns:xlink="http://www.w3.org/1999/xlink" version="1.1" id="Layer_1" x="0px" y="0px" viewBox="0 0 290.626 290.626" style="enable-background:new 0 0 290.626 290.626;" xml:space="preserve" class=""><g><g>
	<g>
		<g>
			<rect x="18.75" y="159.375" width="9.375" height="9.375" data-original="#000000" class="active-path" data-old_color="#000000" fill="#E81935"/>
			<rect x="18.75" y="178.125" width="9.375" height="28.125" data-original="#000000" class="active-path" data-old_color="#000000" fill="#E81935"/>
			<path d="M264.844,166.406c-9.047,0-16.406,7.359-16.406,16.406s7.359,16.406,16.406,16.406s16.406-7.359,16.406-16.406     S273.891,166.406,264.844,166.406z M264.844,189.844c-3.877,0-7.031-3.155-7.031-7.031c0-3.876,3.155-7.031,7.031-7.031     c3.876,0,7.031,3.155,7.031,7.031C271.875,186.689,268.72,189.844,264.844,189.844z" data-original="#000000" class="active-path" data-old_color="#000000" fill="#E81935"/>
			<path d="M126.562,133.594c0-9.047-7.359-16.406-16.406-16.406s-16.406,7.359-16.406,16.406v27.22l-37.5,14.063v27.309l37.5-4.688     v15.783L75,227.344v17.723l24.009-6.005h22.298l24.005,6.005v-17.723l-18.75-14.063v-15.783l37.5,4.688v-27.309l-37.5-14.063     V133.594z M93.75,230.714l-9.375,2.339v-1.022L93.75,225V230.714z M93.75,188.048l-28.125,3.516v-10.191l28.125-10.547V188.048z      M117.187,229.688h-14.063v-96.094h0.001c0-3.877,3.155-7.031,7.031-7.031s7.031,3.155,7.031,7.031V229.688z M126.563,225     l9.375,7.031v1.027l-9.375-2.339V225z M126.563,170.826l28.125,10.547v10.191l-28.125-3.516V170.826z" data-original="#000000" class="active-path" data-old_color="#000000" fill="#E81935"/>
			<polygon points="240.572,57.497 183.666,110.02 167.963,86.461 160.162,91.664 181.959,124.355 246.928,64.378    " data-original="#000000" class="active-path" data-old_color="#000000" fill="#E81935"/>
			<path d="M276.563,93.75h-5.438c0.441-3.07,0.75-6.183,0.75-9.375c0-36.187-29.438-65.625-65.625-65.625     s-65.625,29.438-65.625,65.625c0,3.155,0.239,6.286,0.684,9.375H14.063C6.309,93.75,0,100.059,0,107.813v150     c0,7.753,6.309,14.063,14.063,14.063h262.5c7.753,0,14.063-6.309,14.063-14.063v-150     C290.625,100.059,284.316,93.75,276.563,93.75z M37.5,262.5H14.063c-2.583,0-4.688-2.1-4.688-4.687v-150     c0-2.588,2.105-4.688,4.688-4.688H37.5V262.5z M239.063,262.5H46.875V103.125h96.516c1.589,5.311,3.829,10.425,6.74,15.22     l-12.234,33.656l37.959-9.488c9.361,4.898,19.828,7.486,30.394,7.486c11.958,0,23.147-3.267,32.813-8.878V262.5z M206.25,140.625     c-9.591,0-19.092-2.484-27.469-7.191l-1.627-0.909l-24.422,6.103l7.8-21.445l-1.294-1.969C153.197,106.022,150,95.363,150,84.375     c0-31.017,25.233-56.25,56.25-56.25c31.017,0,56.25,25.233,56.25,56.25C262.5,115.392,237.267,140.625,206.25,140.625z      M281.25,182.812L281.25,182.812v75.001c0,2.587-2.105,4.688-4.688,4.688h-28.125v-79.688v-48.244     c9.675-8.147,16.964-19.027,20.672-31.444h7.453c2.583,0,4.688,2.1,4.688,4.688V182.812z" data-original="#000000" class="active-path" data-old_color="#000000" fill="#E81935"/>
		</g>
	</g>
</g></g> </svg>
