<svg width="7.0556cm" height="1.7547cm" clip-rule="evenodd" fill-rule="evenodd" image-rendering="optimizeQuality" shape-rendering="geometricPrecision" text-rendering="geometricPrecision" version="1.1" viewBox="0 0 7055.6 1754.7" xml:space="preserve" xmlns="http://www.w3.org/2000/svg">
 <defs>
  <style type="text/css">
   <![CDATA[
    .fil1 {fill:#FEFEFE;fill-rule:nonzero}
    .fil0 {fill:#E81933;fill-rule:nonzero}
   ]]>
  </style>
 </defs>
 <g transform="translate(-1477.8 -3646.7)">
  <g fill-rule="nonzero">
   <path class="fil0" d="m1477.8 3917.8c0-55.88 19.42-103.03 58.26-141.47 38.43-38.84 85.59-58.25 141.46-58.25 56.67 0 103.83 19.02 142.26 57.46 38.44 38.43 57.46 85.59 57.46 142.26 0 55.87-19.41 103.42-58.25 143.05-38.44 39.23-85.59 59.05-141.47 59.05-54.29 0-101.05-19.82-140.67-59.84-39.23-40.02-59.05-87.18-59.05-142.26zm385.18 1436.1h-368.53v-1046.2l368.53-49.93z" fill="#e81933"/>
   <path class="fil1" d="m2529.1 5353.9v-1331.5h-534.96v-351.88h1469.4v351.88h-532.59v1331.5zm1051.3-1436.1c0-55.88 19.42-103.03 58.26-141.47 38.43-38.84 85.59-58.25 141.46-58.25 56.67 0 103.83 19.02 142.26 57.46 38.44 38.43 57.46 85.59 57.46 142.26 0 55.87-19.41 103.42-58.25 143.05-38.44 39.23-85.59 59.05-141.47 59.05-54.29 0-101.05-19.82-140.67-59.84-39.23-40.02-59.05-87.18-59.05-142.26zm385.18 1436.1h-368.53v-1046.2l368.53-49.93zm1186.4-59.44c-64.2 36.46-127.6 63.4-189.82 80.84-62.21 17.43-126.41 26.15-192.19 26.15-174.36 0-317.41-52.31-429.16-156.92-112.14-104.22-168.02-236.57-168.02-397.06 0-166.04 60.24-305.92 180.7-418.46 120.47-112.54 271.45-168.82 453.34-168.82 66.57 0 131.95 7.53 195.36 22.59 63.4 15.06 124.82 37.65 183.47 68.16l-40.82 325.34c-57.06-34.87-112.14-61.42-165.24-79.65s-102.24-27.34-147.81-27.34c-82.03 0-150.19 24.96-204.47 74.89-54.29 49.93-81.24 111.75-81.24 185.85 0 79.26 24.97 142.66 75.29 190.61 50.33 47.95 116.5 71.72 198.53 71.72 51.12 0 105.81-11.09 163.66-32.89 58.25-22.19 125.62-57.85 202.1-107.39zm599.15 59.44h-351.88v-1657.2l351.88-49.93v1091.7l320.59-430.74h380.81l-363.38 446.99 448.98 599.16h-401.82l-385.18-556.36zm1152-620.56 453.33-13.87v-16.25c0-55.08-19.42-100.25-57.85-135.52-38.84-35.27-87.58-53.1-146.23-53.1-65.38 0-120.46 19.02-164.45 57.46s-72.12 92.33-84.8 161.28zm693.47 247.27-40.42 321.38c-71.33 33.68-141.47 59.04-210.42 75.29s-138.3 24.17-208.83 24.17c-174.36 0-314.64-49.93-421.63-150.18-106.6-100.26-160.1-231.03-160.1-391.91 0-168.02 58.26-309.89 175.16-425.6 116.89-115.71 259.16-173.57 426.38-173.57 143.06 0 260.35 42.41 352.29 127.21 91.53 84.8 137.5 194.57 137.5 329.3 0 20.6-1.58 53.89-4.75 99.86l-1.19 6.73-32.5 47.16-712.89 19.81c5.55 70.54 34.88 128 87.98 171.99 53.49 43.98 120.86 65.78 201.7 65.78 57.46 0 120.86-12.29 191-37.25 69.74-24.57 143.45-61.43 220.72-110.17zm318.6 22.19v-419.25h-152.17v-275.8h152.17v-313.85l370.91-49.93v363.78h247.27v275.8h-247.27v444.22c0 94.31 12.68 162.87 38.43 204.87 25.76 42.01 74.11 81.24 144.64 116.5l-413.7 28.54c-51.91-24.97-87.97-61.82-108.98-110.96-21-49.14-31.3-137.11-31.3-263.92z" fill="#fefefe"/>
  </g>
 </g>
</svg>
