<?xml version="1.0" encoding="UTF-8" standalone="no"?>
<!-- Generator: Adobe Illustrator 18.0.0, SVG Export Plug-In . SVG Version: 6.00 Build 0)  -->

<svg
   xmlns:dc="http://purl.org/dc/elements/1.1/"
   xmlns:cc="http://creativecommons.org/ns#"
   xmlns:rdf="http://www.w3.org/1999/02/22-rdf-syntax-ns#"
   xmlns:svg="http://www.w3.org/2000/svg"
   xmlns="http://www.w3.org/2000/svg"
   xmlns:xlink="http://www.w3.org/1999/xlink"
   xmlns:sodipodi="http://sodipodi.sourceforge.net/DTD/sodipodi-0.dtd"
   xmlns:inkscape="http://www.inkscape.org/namespaces/inkscape"
   version="1.1"
   id="Layer_1"
   x="0px"
   y="0px"
   width="612"
   height="792"
   viewBox="0 0 612 792"
   style="enable-background:new 0 0 612 792;"
   xml:space="preserve"
   sodipodi:docname="sprite.svg"
   inkscape:version="0.92.3 (2405546, 2018-03-11)"><metadata
   id="metadata863"><rdf:RDF><cc:Work
       rdf:about=""><dc:format>image/svg+xml</dc:format><dc:type
         rdf:resource="http://purl.org/dc/dcmitype/StillImage" /><dc:title /></cc:Work></rdf:RDF></metadata><defs
   id="defs861">
	
	

		
		
	
		
	
			
		
			
		
	
	
	

		
	
		
	
	
	

		
	
		
		
		
	
	
	
	
	

	

	
	

	
	
	

	
	
	
	

	
	

	

	
	
	
	

		
	
	
	

	
	

		
		
	
	

		
	
	

		
		
	
	
	
	
	

	
	

		
		
		
	
		
		
		
		
		
		
	
	
	
	
	
	
	
	

		
		
	
		
		
	
		
		
	
		
		
	
		
		
	
		
		
	
		
		
	
			
		
			
				<linearGradient
   gradientTransform="translate(0,-300)"
   y2="457.5"
   x2="158.94"
   y1="457.5"
   x1="147.94"
   gradientUnits="userSpaceOnUse"
   id="SVGID_2_">
				<stop
   id="stop348"
   style="stop-color:#FFFFFF"
   offset="0" />
				<stop
   id="stop350"
   style="stop-color:#989898"
   offset="1" />
			</linearGradient>
			
		
			
		
			
				<linearGradient
   gradientTransform="translate(0,-300)"
   y2="457.5"
   x2="131"
   y1="457.5"
   x1="120"
   gradientUnits="userSpaceOnUse"
   id="SVGID_7_">
				<stop
   id="stop399"
   style="stop-color:#CBCBCB"
   offset="0" />
				<stop
   id="stop401"
   style="stop-color:#FFFFFF"
   offset="1" />
			</linearGradient>
			
		
			
		
			
				<linearGradient
   gradientTransform="translate(0,-300)"
   y2="457.5"
   x2="147.082"
   y1="457.5"
   x1="141.582"
   gradientUnits="userSpaceOnUse"
   id="SVGID_12_">
				<stop
   id="stop450"
   style="stop-color:#E5E5E5"
   offset="0" />
				<stop
   id="stop452"
   style="stop-color:#989898"
   offset="1" />
			</linearGradient>
			
		
			
		
			
		
			
		
			
		
			
		
			
		
			
			
			
			
			
			
			
			
			
			
		</defs><sodipodi:namedview
   pagecolor="#ffffff"
   bordercolor="#666666"
   borderopacity="1"
   objecttolerance="10"
   gridtolerance="10"
   guidetolerance="10"
   inkscape:pageopacity="0"
   inkscape:pageshadow="2"
   inkscape:window-width="1920"
   inkscape:window-height="1004"
   id="namedview859"
   showgrid="false"
   inkscape:zoom="2.1085859"
   inkscape:cx="361.71086"
   inkscape:cy="687.91714"
   inkscape:window-x="0"
   inkscape:window-y="0"
   inkscape:window-maximized="1"
   inkscape:current-layer="Layer_1" />
<g
   id="g14">
	<g
   id="g12">
		<path
   fill="#4569DB"
   d="M17.7,15.7v5.1h4.9v3.8h-4.9v7.7c0,1.7,0.9,2.5,2.3,2.5c0.7,0,1.5-0.2,2.1-0.5l1.2,3.8    c-1.3,0.5-2.3,0.7-3.6,0.8c-3.9,0.1-6.4-2.1-6.4-6.5v-7.7H10v-3.8h3.3v-4.6L17.7,15.7z"
   id="path2" />
		<path
   fill="#4569DB"
   d="M30,20.7l0.3,2.1c1.4-2.2,3.2-2.5,5-2.5s3.6,0.7,4.6,1.7l-2,3.8c-0.9-0.8-1.7-1.2-3.2-1.2    c-2.3,0-4.4,1.2-4.4,4.5v9.4h-4.4V20.7H30z"
   id="path4" />
		<path
   fill="#4569DB"
   d="M41.6,20.7v17.9H46V20.7H41.6z"
   id="path6" />
		<path
   fill="#4569DB"
   d="M50,46V20.7h4.1l0.3,2.5c1.4-2,3.8-2.9,5.8-2.9c5.5,0,9.1,4.1,9.1,9.3s-3.3,9.3-9,9.3    c-1.9,0-4.7-0.6-5.9-2.5V46C54.4,46,50,46,50,46z M64.9,29.7c0-2.8-1.9-5.1-5.1-5.1c-3.2,0-5.1,2.3-5.1,5.1s2.1,5.1,5.1,5.1    C62.9,34.7,64.9,32.5,64.9,29.7z"
   id="path8" />
		<path
   fill="#4569DB"
   d="M84.2,25.5c-1.3-1.2-2.7-1.6-4.4-1.6c-2.1,0-3.3,0.6-3.3,1.8c0,1.2,1,1.8,3.3,2c3.4,0.2,7.6,1,7.6,5.7    c0,3.1-2.6,5.9-7.7,5.9c-2.8,0-5.6-0.5-8.2-3.2l2.2-3.1c1.3,1.4,4.2,2.5,6.1,2.5c1.7,0,3.2-0.8,3.2-2.1c0-1.2-1-1.7-3.5-1.9    c-3.4-0.3-7.4-1.5-7.4-5.5c0-4.1,4.3-5.6,7.5-5.6c2.8,0,4.9,0.5,6.9,2.3L84.2,25.5z"
   id="path10" />
	</g>
</g>
<path
   fill="#FC3070"
   d="M54.1,15.3h-7.7c-0.2-1.3-1.1-2-2.1-2.1V10h-0.8v3.2c-1,0.1-2,0.9-2.1,2.1h-7.7v0.8h7.7  c0.4,2.9,4.7,2.9,5.1,0h7.7C54.1,16.1,54.1,15.3,54.1,15.3z"
   id="path16" />
<g
   id="g22">
	<path
   fill="#EE3771"
   d="M39,17.5c0,1.1-1.7,1.1-1.7,0S39,16.4,39,17.5z"
   id="path18" />
	<path
   fill="#EE3771"
   d="M50.8,17.5c0,1.1-1.7,1.1-1.7,0C49.2,16.4,50.8,16.4,50.8,17.5z"
   id="path20" />
</g>
<g
   id="g36">
	<g
   id="g34">
		<path
   fill="#808080"
   d="M118,15.9v5.2h5.1V25H118v8c0,1.8,1,2.6,2.4,2.6c0.7,0,1.5-0.2,2.2-0.6l1.3,3.9c-1.3,0.5-2.4,0.7-3.8,0.8    c-4,0.1-6.6-2.1-6.6-6.7v-8H110v-3.9h3.4v-4.7L118,15.9z"
   id="path24" />
		<path
   fill="#808080"
   d="M130.7,21.1l0.3,2.1c1.4-2.3,3.3-2.6,5.2-2.6s3.7,0.7,4.7,1.8l-2.1,4c-0.9-0.8-1.8-1.2-3.3-1.2    c-2.4,0-4.6,1.3-4.6,4.7v9.7h-4.6V21.1H130.7z"
   id="path26" />
		<path
   fill="#808080"
   d="M142.6,21v18.5h4.6V21H142.6z"
   id="path28" />
		<path
   fill="#808080"
   d="M151.3,47.2V21.1h4.3l0.3,2.5c1.4-2.1,3.9-2.9,6-2.9c5.7,0,9.4,4.2,9.4,9.6s-3.4,9.6-9.3,9.6    c-1.9,0-4.8-0.6-6.1-2.6v9.8L151.3,47.2L151.3,47.2z M166.7,30.3c0-2.9-1.9-5.2-5.2-5.2s-5.2,2.4-5.2,5.2c0,2.9,2.1,5.2,5.2,5.2    C164.6,35.5,166.7,33.2,166.7,30.3z"
   id="path30" />
		<path
   fill="#808080"
   d="M186.6,26c-1.3-1.2-2.8-1.6-4.6-1.6c-2.2,0-3.4,0.7-3.4,1.8c0,1.2,1.1,1.9,3.4,2c3.5,0.2,7.9,1,7.9,5.9    c0,3.2-2.6,6-7.9,6c-2.9,0-5.8-0.5-8.5-3.3l2.2-3.2c1.3,1.5,4.3,2.5,6.3,2.6c1.7,0,3.3-0.9,3.3-2.2s-1-1.8-3.7-1.9    c-3.5-0.3-7.6-1.5-7.6-5.7c0-4.3,4.4-5.7,7.8-5.7c2.9,0,5,0.6,7.2,2.4L186.6,26z"
   id="path32" />
	</g>
</g>
<g
   id="g44">
	<path
   fill="#808080"
   d="M147.6,15.5c-0.2-1.3-1.1-2-2.2-2.2V10h-0.9v3.3c-1.1,0.2-2,0.9-2.2,2.2h-8v0.9h8c0.4,3,4.9,3,5.3,0h8v-0.9   C155.5,15.5,147.6,15.5,147.6,15.5z"
   id="path38" />
	<path
   fill="#808080"
   d="M138.2,17.7c0,1.1,1.7,1.1,1.7,0S138.2,16.6,138.2,17.7z"
   id="path40" />
	<path
   fill="#808080"
   d="M150.4,17.7c0,1.1,1.7,1.1,1.7,0S150.4,16.6,150.4,17.7z"
   id="path42" />
</g>
<path
   id="Blue_1_"
   fill="#CBCBCB"
   d="M26.9,87.3v-7.8h-2.6v-3h2.6v-2.2c0-2.6,1.6-4,3.9-4c1.1,0,2.1,0.1,2.3,0.1v2.7h-1.6  c-1.3,0-1.5,0.6-1.5,1.5v1.9h3l-0.4,3H30v7.8" />
<g
   id="g51">
	<g
   id="g49">
		<path
   fill="#CBCBCB"
   d="M85.3,71H73c-0.8,0-1.5,0.7-1.5,1.5v12.2c0,0.8,0.7,1.5,1.5,1.5h12.2c0.8,0,1.5-0.7,1.5-1.5V72.5    C86.8,71.7,86.1,71,85.3,71L85.3,71z M79.1,75.6c1.7,0,3.1,1.4,3.1,3.1s-1.4,3.1-3.1,3.1S76,80.4,76,78.7    C76.1,76.9,77.5,75.6,79.1,75.6L79.1,75.6z M73.4,84.8c-0.2,0-0.4-0.2-0.4-0.4v-6.5h1.6c-0.1,0.2-0.1,0.5-0.1,0.8    c0,2.5,2.1,4.6,4.6,4.6s4.6-2.1,4.6-4.6c0-0.2,0-0.5-0.1-0.8h1.6v6.5c0,0.2-0.2,0.4-0.4,0.4H73.4z M85.3,74.4    c0,0.2-0.2,0.4-0.4,0.4h-1.5c-0.2,0-0.4-0.2-0.4-0.4v-1.5c0-0.2,0.2-0.4,0.4-0.4h1.5c0.2,0,0.4,0.2,0.4,0.4V74.4z"
   id="path47" />
	</g>
</g>
<path
   id="Blue_2_"
   fill="#4D4D4D"
   d="M26.9,137.3v-7.8h-2.6v-3h2.6v-2.2c0-2.6,1.6-4,3.9-4c1.1,0,2.1,0.1,2.3,0.1v2.7h-1.6  c-1.3,0-1.5,0.6-1.5,1.5v1.9h3l-0.4,3H30v7.8" />
<g
   id="g58">
	<g
   id="g56">
		<path
   fill="#4D4D4D"
   d="M85.3,121H73c-0.8,0-1.5,0.7-1.5,1.5v12.2c0,0.8,0.7,1.5,1.5,1.5h12.2c0.8,0,1.5-0.7,1.5-1.5v-12.2    C86.8,121.7,86.1,121,85.3,121L85.3,121z M79.1,125.6c1.7,0,3.1,1.4,3.1,3.1s-1.4,3.1-3.1,3.1s-3.1-1.4-3.1-3.1    C76.1,126.9,77.5,125.6,79.1,125.6L79.1,125.6z M73.4,134.8c-0.2,0-0.4-0.2-0.4-0.4v-6.5h1.6c-0.1,0.2-0.1,0.5-0.1,0.8    c0,2.5,2.1,4.6,4.6,4.6s4.6-2.1,4.6-4.6c0-0.2,0-0.5-0.1-0.8h1.6v6.5c0,0.2-0.2,0.4-0.4,0.4H73.4z M85.3,124.4    c0,0.2-0.2,0.4-0.4,0.4h-1.5c-0.2,0-0.4-0.2-0.4-0.4v-1.5c0-0.2,0.2-0.4,0.4-0.4h1.5c0.2,0,0.4,0.2,0.4,0.4V124.4z"
   id="path54" />
	</g>
</g>
<g
   id="g2569"><path
     style="fill:#d5d5d5;fill-opacity:1"
     inkscape:connector-curvature="0"
     id="path60"
     d="m 148.7,70 -28.7,1.6 8,21.7 27.4,-8.6 z m -14.4,11.8 c -0.2,0.4 -0.6,0.8 -1,1 -0.4,0.3 -1,0.5 -1.6,0.6 -0.6,0.1 -1.3,0.2 -2.1,0.2 H 129 v 2.8 h -3.6 v -9.3 h 4.2 c 1.6,0 2.8,0.3 3.7,0.8 0.9,0.5 1.3,1.3 1.3,2.4 0.1,0.6 -0.1,1.1 -0.3,1.5 z m 9.2,4.7 c -0.5,0.1 -1.2,0.2 -1.9,0.2 -1,0 -1.9,-0.1 -2.6,-0.3 -0.8,-0.2 -1.4,-0.5 -2,-1 -0.5,-0.4 -0.9,-0.9 -1.2,-1.5 -0.3,-0.6 -0.4,-1.3 -0.4,-2 0,-0.7 0.1,-1.4 0.4,-2 0.3,-0.6 0.7,-1.1 1.3,-1.5 0.5,-0.4 1.2,-0.8 1.9,-1 0.7,-0.2 1.6,-0.3 2.5,-0.3 0.7,0 1.3,0 1.9,0.1 0.6,0.1 0.6,0.1 1,0.3 V 80 c -0.4,-0.2 -0.7,-0.4 -1.2,-0.5 -0.4,-0.1 -0.9,-0.2 -1.4,-0.2 -0.8,0 -1.5,0.2 -2,0.7 -0.5,0.4 -0.8,1.1 -0.8,1.9 0,0.4 0.1,0.8 0.2,1.1 0.2,0.3 0.4,0.6 0.6,0.8 0.3,0.2 0.6,0.4 0.9,0.5 0.4,0.1 0.7,0.2 1.2,0.2 0.4,0 0.8,0 1.3,-0.1 0.4,-0.1 0.8,-0.2 1.3,-0.4 v 2.3 c -0.4,0.1 -0.5,0.1 -1,0.2 z m 2.8,-13.7 c 0.4,-0.4 0.9,-0.5 1.5,-0.5 0.6,0 1.1,0.2 1.5,0.5 0.4,0.4 0.6,0.9 0.6,1.5 0,0.6 -0.2,1.1 -0.6,1.5 -0.4,0.4 -0.9,0.5 -1.5,0.5 -0.6,0 -1.1,-0.2 -1.5,-0.5 -0.4,-0.4 -0.6,-0.9 -0.6,-1.5 0,-0.7 0.2,-1.2 0.6,-1.5 z m 3.3,13.7 H 146 v -9.3 h 3.6 z" /></g><path
   d="M 129.4,79.2 H 129 v 2.5 h 0.4 c 0.6,0 1,-0.1 1.4,-0.3 0.3,-0.2 0.5,-0.5 0.5,-1 -0.1,-0.8 -0.7,-1.2 -1.9,-1.2 z"
   id="path62"
   inkscape:connector-curvature="0"
   style="fill:#797a7a" />
<path
   d="m 220.8,125.6 v 0 0 0 c 0,0.1 0,0.1 0,0 0.1,0.1 0.1,0.1 0,0 0.1,0 0.1,0 0,0 z"
   id="path68"
   inkscape:connector-curvature="0"
   style="fill:#707070" /><path
   d="m 218.2,122.2 c -0.6,0 -1.1,0.7 -1.1,1.7 0,0.7 0.2,1 0.7,1 0.6,0 1.1,-0.7 1.1,-1.7 0,-0.7 -0.3,-1 -0.7,-1 z"
   id="path70"
   inkscape:connector-curvature="0"
   style="fill:#bebebe;fill-opacity:1" /><path
   d="m 210.1,124.6 c 0,0.3 0.2,0.5 0.5,0.5 0.6,0 1,-0.5 1,-1.3 -0.1,0 -0.2,0 -0.3,0 -0.8,0 -1.2,0.3 -1.2,0.8 z"
   id="path72"
   inkscape:connector-curvature="0"
   style="fill:#bebebe;fill-opacity:1" /><path
   d="m 199.9,122 c -0.4,0 -0.7,0.3 -0.9,0.9 h 1.5 c 0,-0.1 0.2,-0.9 -0.6,-0.9 z"
   id="path74"
   inkscape:connector-curvature="0"
   style="fill:#707070" /><path
   d="m 220.8,125.4 c -0.2,0 -0.3,0.1 -0.3,0.3 0,0.2 0.1,0.3 0.3,0.3 0.2,0 0.3,-0.1 0.3,-0.3 0,-0.1 -0.1,-0.3 -0.3,-0.3 z m 0.1,0.5 -0.1,-0.1 h -0.1 v 0.1 h -0.1 v -0.4 h 0.2 0.1 v 0.1 c 0,0 0,0.1 -0.1,0.1 z"
   id="path76"
   inkscape:connector-curvature="0"
   style="fill:#707070" /><path
   d="m 209.6,110 c -6.2,0 -11.4,4.4 -12.6,10.2 h 0.2 L 197,121 h 0.7 l -0.2,1.2 h -0.7 c 0,0.1 0,0.3 -0.1,0.4 0,0 0,0 0,0.1 0,0.8 0.1,1.5 0.2,2.3 0.1,0 0.2,0 0.3,0 l -0.1,0.9 c 1.4,5.5 6.5,9.6 12.5,9.6 7.1,0 12.9,-5.7 12.9,-12.7 0,-7.1 -5.8,-12.8 -12.9,-12.8 z m -9.5,15 c 0.5,0 0.9,-0.1 1.4,-0.3 l -0.2,1.3 c -0.5,0.1 -0.9,0.2 -1.4,0.2 -1.5,0 -2.3,-0.8 -2.3,-2.3 0,-1.8 1,-3.1 2.4,-3.1 1.1,0 1.8,0.7 1.8,1.9 0,0.4 0,0.8 -0.2,1.3 h -2.7 c -0.1,0.7 0.4,1 1.2,1 z m 3.1,1.1 h -1.4 l 0.1,-0.3 c 0.2,-1.6 0.5,-3.2 0.7,-4.8 h 1.3 c 0,0.3 0,0.5 -0.1,0.8 0.4,-0.6 0.7,-0.9 1.3,-0.8 -0.2,0.3 -0.4,0.9 -0.5,1.5 -0.8,-0.2 -1,0.5 -1.4,3.6 z m 5.2,-0.1 c -0.5,0.1 -0.8,0.2 -1.2,0.2 -1.5,0 -2.4,-1.1 -2.4,-2.8 0,-2.3 1.3,-3.9 3.1,-3.9 0.6,0 1.3,0.3 1.5,0.3 l -0.2,1.4 c -0.5,-0.2 -0.8,-0.3 -1.2,-0.3 -1,0 -1.7,1 -1.7,2.4 0,1 0.5,1.6 1.3,1.6 0.3,0 0.7,-0.1 1.2,-0.3 z m 4.2,0.1 c -0.2,0 -1.1,0 -1.1,0 v -0.5 c -0.3,0.4 -0.8,0.6 -1.4,0.6 -0.7,0 -1.2,-0.6 -1.2,-1.4 0,-1.3 0.9,-2 2.4,-2 0.2,0 0.4,0 0.6,0 0,-0.2 0.1,-0.2 0.1,-0.3 0,-0.3 -0.2,-0.5 -0.9,-0.5 -0.7,0 -1.2,0.2 -1.4,0.2 0,-0.1 0.2,-1.2 0.2,-1.2 0.7,-0.2 1.1,-0.3 1.6,-0.3 1.2,0 1.8,0.5 1.8,1.5 0,0.3 0,0.6 -0.1,1 -0.3,0.9 -0.6,2.5 -0.6,2.9 z m 1.8,0 H 213 l 0.1,-0.3 c 0.2,-1.6 0.5,-3.2 0.7,-4.8 h 1.3 c 0,0.3 0,0.5 -0.1,0.8 0.4,-0.6 0.7,-0.9 1.3,-0.8 -0.2,0.3 -0.4,0.9 -0.5,1.5 -0.8,-0.2 -0.9,0.5 -1.4,3.6 z m 4.1,0 0.1,-0.5 c -0.4,0.4 -0.8,0.6 -1.3,0.6 -1,0 -1.6,-0.9 -1.6,-2.2 0,-1.7 1,-3.2 2.2,-3.2 0.5,0 0.9,0.2 1.3,0.7 l 0.3,-1.8 h 1.3 l -1,6.4 z m 2.3,0 c -0.2,0 -0.4,-0.2 -0.4,-0.4 0,-0.2 0.2,-0.4 0.4,-0.4 0.2,0 0.4,0.2 0.4,0.4 0,0.2 -0.2,0.4 -0.4,0.4 z"
   id="path78"
   inkscape:connector-curvature="0"
   style="fill:#b4b4b4;fill-opacity:1" /><path
   d="m 188.6,124.6 c 0,0.3 0.2,0.5 0.5,0.5 0.6,0 1,-0.5 1,-1.3 -0.1,0 -0.2,0 -0.3,0 -0.8,0 -1.2,0.3 -1.2,0.8 z"
   id="path82"
   inkscape:connector-curvature="0"
   style="fill:#d5d5d5;fill-opacity:1" /><path
   d="m 199.9,122 c -0.4,0 -0.7,0.3 -0.9,0.9 h 1.5 c 0,-0.1 0.2,-0.9 -0.6,-0.9 z"
   id="path84"
   inkscape:connector-curvature="0"
   style="fill:#d5d5d5;fill-opacity:1" /><path
   d="m 204.8,123.5 c 0,-0.7 0.1,-1.4 0.4,-1.9 -0.6,-6.5 -6.1,-11.5 -12.8,-11.5 -7.1,0 -12.9,5.7 -12.9,12.7 0,7 5.8,12.7 12.9,12.7 6.4,0 11.7,-4.6 12.7,-10.6 -0.2,-0.5 -0.3,-0.9 -0.3,-1.4 z m -19.5,2.6 0.8,-4.9 -1.7,4.9 h -0.9 l -0.1,-4.9 -0.8,4.9 h -1.3 l 1.1,-6.4 h 2 l 0.1,4 1.3,-4 h 2.1 l -1.1,6.4 z m 4.6,0 v -0.5 c -0.3,0.4 -0.8,0.6 -1.4,0.6 -0.7,0 -1.2,-0.6 -1.2,-1.4 0,-1.3 0.9,-2 2.4,-2 0.2,0 0.4,0 0.6,0 0,-0.2 0.1,-0.2 0.1,-0.3 0,-0.3 -0.2,-0.5 -0.9,-0.5 -0.7,0 -1.2,0.2 -1.4,0.2 0,-0.1 0.2,-1.2 0.2,-1.2 0.7,-0.2 1.1,-0.3 1.6,-0.3 1.2,0 1.8,0.5 1.8,1.5 0,0.3 0,0.6 -0.1,1 -0.1,0.8 -0.4,2.4 -0.4,2.8 -0.3,0.1 -1.3,0.1 -1.3,0.1 z m 4,-3.1 c 0.7,0.3 1,0.7 1,1.4 0,1.2 -0.7,1.7 -2.1,1.7 -0.8,0 -1.1,-0.1 -1.4,-0.2 0,-0.1 0.2,-1.2 0.2,-1.2 0.4,0.1 0.8,0.2 1.2,0.2 0.5,0 0.8,-0.1 0.8,-0.5 0,-0.2 -0.1,-0.3 -0.6,-0.6 -0.7,-0.3 -1,-0.8 -1,-1.4 0,-1 0.5,-1.8 2.1,-1.8 0.3,0 0.8,0 1.2,0.1 l -0.2,1.2 c -0.3,0 -0.7,-0.1 -1,-0.1 -0.4,0 -0.7,0.1 -0.7,0.4 -0.1,0.5 0,0.6 0.5,0.8 z m 3,2 c 0.2,0 0.3,0 0.4,0 l -0.2,1.1 c -0.4,0.1 -0.7,0.2 -1,0.2 -0.7,0 -1.1,-0.4 -1.1,-1.1 0,-0.2 0.1,-0.8 0.2,-1.4 0.1,-0.5 0.6,-3.5 0.6,-3.5 h 1.4 l -0.2,0.8 h 0.7 l -0.2,1.2 h -0.7 c -0.2,1 -0.4,2.2 -0.4,2.4 0.1,0.1 0.2,0.3 0.5,0.3 z m 3.2,0 c 0.5,0 0.9,-0.1 1.4,-0.3 l -0.2,1.3 c -0.5,0.1 -0.9,0.2 -1.4,0.2 -1.5,0 -2.3,-0.8 -2.3,-2.3 0,-1.8 1,-3.1 2.4,-3.1 1.1,0 1.8,0.7 1.8,1.9 0,0.4 0,0.8 -0.2,1.3 h -2.7 c -0.1,0.7 0.4,1 1.2,1 z m 3.1,1.1 h -1.4 l 0.1,-0.3 c 0.2,-1.6 0.5,-3.2 0.7,-4.8 h 1.3 c 0,0.3 0,0.5 -0.1,0.8 0.4,-0.6 0.7,-0.9 1.3,-0.8 -0.2,0.3 -0.4,0.9 -0.5,1.5 -0.8,-0.2 -1,0.5 -1.4,3.6 z"
   id="path86"
   inkscape:connector-curvature="0"
   style="fill:#d5d5d5;fill-opacity:1" />
<g
   id="g3211"><polygon
     points="133.8,129 138,114.9 141.8,114.9 137.6,129 "
     id="polygon92"
     style="fill:#dfdfdf;fill-opacity:0.64772725" /><path
     d="m 132.1,114.9 -3.4,5.9 c -0.9,1.6 -1.4,2.3 -1.6,3.3 H 127 c 0.1,-1.2 -0.1,-2.8 -0.1,-3.6 l -0.4,-5.6 h -6.4 l -0.1,0.4 c 1.6,0 2.6,0.8 2.9,2.5 l 1.2,11.1 h 3.9 l 8,-14 z"
     id="path94"
     inkscape:connector-curvature="0"
     style="fill:#dfdfdf;fill-opacity:0.64772725" /><path
     d="m 161.6,129 -0.1,-2.1 h -4.7 l -1,2.1 h -4.1 l 7.5,-14 h 5.1 l 1.3,14 z m -0.4,-8.3 c 0,-1 -0.1,-2.4 0,-3.3 h -0.1 c -0.2,0.7 -1.2,2.8 -1.7,3.8 l -1.4,3.1 h 3.3 z"
     id="path96"
     inkscape:connector-curvature="0"
     style="fill:#dfdfdf;fill-opacity:0.64772725" /><path
     d="m 145.8,129.4 c -2.7,0 -4.5,-0.8 -5.7,-1.6 l 1.8,-2.8 c 1.1,0.6 2,1.4 4.1,1.4 0.7,0 1.3,-0.2 1.7,-0.8 0.5,-0.9 -0.1,-1.4 -1.6,-2.2 l -0.7,-0.5 c -2.2,-1.5 -3.2,-2.9 -2.1,-5.4 0.7,-1.6 2.4,-2.8 5.3,-2.8 2,0 3.9,0.9 4.9,1.7 l -2.1,2.4 c -1.1,-0.9 -1.9,-1.3 -2.9,-1.3 -0.8,0 -1.4,0.3 -1.6,0.7 -0.4,0.8 0.1,1.3 1.3,2 l 0.9,0.6 c 2.7,1.7 3.3,3.4 2.6,5.1 -1.3,2.8 -3.5,3.5 -5.9,3.5 z"
     id="path98"
     inkscape:connector-curvature="0"
     style="fill:#dfdfdf;fill-opacity:0.64772725" /></g>
<g
   id="g2444"><path
     style="fill:#e81935;fill-opacity:1"
     inkscape:connector-curvature="0"
     id="path102"
     d="m 276.7,21.5 c -0.6,-0.9 -2.2,-1.7 -3.7,-1.7 -1.8,0 -3.5,0.5 -3.5,2.1 0,1.5 1.7,1.7 3.6,1.9 3.2,0.4 6.6,1 6.6,4.8 0,3 -2.5,4.6 -5.2,4.8 v 2.2 h -2.8 v -2.1 c -2.5,-0.2 -4.7,-1.3 -5.8,-3.8 l 2.6,-1.1 c 0.6,1.4 2.5,2.3 4.4,2.3 2,0 3.8,-0.7 3.8,-2.4 0,-1.5 -1.8,-2 -3.9,-2.2 -3.1,-0.4 -6.2,-0.9 -6.2,-4.5 0,-2.9 2.5,-4.2 5.1,-4.5 v -1.9 h 2.8 v 1.9 c 1.9,0.3 3.6,1 4.6,3 z" /><polygon
     points="259.7,43.9 250,43.9 250,10 259.7,10 259.7,13.4 253.4,13.4 253.4,40.5 259.7,40.5 "
     id="polygon106"
     style="fill:#e81935;fill-opacity:1" /><polygon
     points="296,43.9 286.3,43.9 286.3,40.5 292.6,40.5 292.6,13.4 286.3,13.4 286.3,10 296,10 "
     id="polygon110"
     style="fill:#e81935;fill-opacity:1" /></g>
<g
   id="g2452"><path
     style="fill:#e81935;fill-opacity:1"
     inkscape:connector-curvature="0"
     id="path118"
     d="m 361.4,15.2 c -12.6,0 -14.8,-4.8 -14.8,-4.8 C 346.5,10.2 346.3,10 346,10 v 0 c -0.3,0 -0.5,0.2 -0.6,0.4 0,0.1 -2.2,4.9 -14.8,4.9 -0.4,0 -0.6,0.3 -0.6,0.6 v 21.5 c 0,8.8 15.1,15.5 15.7,15.8 0.1,0 0.2,0.1 0.3,0.1 0.1,0 0.2,0 0.3,-0.1 0.6,-0.3 15.7,-7 15.7,-15.8 V 15.9 c 0,-0.4 -0.3,-0.7 -0.6,-0.7 z m -2.9,20.9 c 0,6.9 -11.8,12.1 -12.3,12.4 -0.1,0 -0.1,0 -0.2,0 -0.1,0 -0.1,0 -0.2,0 C 345.3,48.3 333.5,43 333.5,36.1 V 19.3 c 0,-0.3 0.2,-0.5 0.5,-0.5 9.8,0 11.6,-3.8 11.6,-3.8 0.1,-0.2 0.3,-0.3 0.5,-0.3 v 0 c 0.2,0 0.4,0.1 0.5,0.3 0,0 1.7,3.8 11.6,3.8 0.3,0 0.5,0.2 0.5,0.5 z" /><path
     d="m 353.6,34.5 c 0,1.2 -1,2.2 -2.2,2.2 h -10.9 c -1.2,0 -2.2,-1 -2.2,-2.2 v -5.8 c 0,-1.2 1,-2.2 2.2,-2.2 h 10.9 c 1.2,0 2.2,1 2.2,2.2 z"
     id="path122"
     inkscape:connector-curvature="0"
     style="fill:#e81935;fill-opacity:1" /><path
     style="fill:#e81935;fill-opacity:1"
     inkscape:connector-curvature="0"
     id="path124"
     d="m 346.7,30 h -1.5 c -1.6,0 -2.9,-1.3 -2.9,-2.9 0,-1.6 1.3,-2.9 2.9,-2.9 h 1.5 c 1.6,0 2.9,1.3 2.9,2.9 v 0 c 0,1.6 -1.3,2.9 -2.9,2.9 z m -1.4,-4.4 c -0.8,0 -1.5,0.7 -1.5,1.5 0,0.8 0.7,1.5 1.5,1.5 h 1.5 c 0.8,0 1.5,-0.7 1.5,-1.5 v 0 c 0,-0.8 -0.7,-1.5 -1.5,-1.5 z" /></g>
<g
   id="g2462"><path
     style="fill:#e81935;fill-opacity:1"
     inkscape:connector-curvature="0"
     id="path130"
     d="m 269.2,90.5 c 4.7,0 8.9,2.1 11.8,5.3 l 2.4,-2.4 c -3.5,-3.9 -8.5,-6.3 -14.2,-6.3 -5.6,0 -10.7,2.4 -14.2,6.3 l 2.4,2.4 c 2.9,-3.2 7.1,-5.3 11.8,-5.3 z" /><path
     style="fill:#e81935;fill-opacity:1"
     inkscape:connector-curvature="0"
     id="path132"
     d="m 269.2,83.4 c 6.6,0 12.6,2.9 16.8,7.4 l 2.4,-2.4 C 283.6,83.2 276.8,80 269.2,80 c -7.6,0 -14.4,3.2 -19.2,8.4 l 2.4,2.4 c 4.2,-4.5 10.2,-7.4 16.8,-7.4 z" /><path
     style="fill:#e81935;fill-opacity:1"
     inkscape:connector-curvature="0"
     id="path134"
     d="m 269.2,98.1 c 2.6,0 4.9,1.2 6.4,3.2 l 2.4,-2.4 c -2.1,-2.5 -5.3,-4.1 -8.8,-4.1 -3.5,0 -6.7,1.6 -8.8,4.1 l 2.4,2.4 c 1.5,-2 3.8,-3.2 6.4,-3.2 z" /><circle
     style="fill:#e81935;fill-opacity:1"
     id="circle138"
     r="3.4000001"
     cy="106.3"
     cx="269.20001" /></g>
<g
   id="g2472"><path
     d="m 320.1,86.7 c 0,-3.7 3.5,-5.2 6.7,-5.2 3.5,0 7.2,1.4 7.2,5.5 0,4.4 -3.3,5.2 -7,5.2 -1.4,0 -3.8,0.4 -3.8,2.3 V 96 H 334 v 3 h -14 c 0,-1.5 0,-3 0,-4.6 0,-4 3.6,-5.2 7,-5.2 1.3,0 3.7,-0.2 3.7,-2.2 0,-1.9 -1.7,-2.8 -3.9,-2.8 -1.7,0 -3.5,0.9 -3.5,2.4 z"
     id="path144"
     inkscape:connector-curvature="0"
     style="fill:#e81935;fill-opacity:1" /><path
     d="m 348.1,81.7 v 10.8 h 2 v 3.2 h -2 V 99 h -3.2 v -3.3 h -9.3 l -0.3,-3.3 7.8,-10.7 z m -3.2,10.8 v -8 l -5.9,8 z"
     id="path146"
     inkscape:connector-curvature="0"
     style="fill:#e81935;fill-opacity:1" /><path
     d="m 362.5,80 -8.3,21 H 351 l 8.2,-21 z"
     id="path148"
     inkscape:connector-curvature="0"
     style="fill:#e81935;fill-opacity:1" /><path
     d="m 364.5,99 7.1,-14.2 h -8.4 v -3.1 h 12.7 l 0.2,1.7 -7.9,15.6 z"
     id="path150"
     inkscape:connector-curvature="0"
     style="fill:#e81935;fill-opacity:1" /></g>
<g
   id="g158">
	<g
   id="g156">
		<path
   fill="#FFFFFF"
   d="M223.3,20.4c0-2.5,2-3.7,2.1-3.7c-1.1-1.7-2.9-1.9-3.6-1.9c-1.5-0.2-3,0.9-3.7,0.9c-0.8,0-2-0.9-3.2-0.9    c-1.7,0-3.2,1-4,2.4c-1.7,3-0.4,7.4,1.2,9.8c0.8,1.2,1.8,2.5,3.1,2.5c1.2,0,1.7-0.8,3.2-0.8s1.9,0.8,3.2,0.8s2.2-1.2,3-2.4    c0.9-1.4,1.3-2.7,1.4-2.8C225.9,24.3,223.3,23.3,223.3,20.4L223.3,20.4z M220.8,13.1c0.7-0.8,1.1-2,1-3.1c-1,0-2.2,0.7-2.9,1.5    c-0.6,0.7-1.2,1.9-1,3C219,14.6,220.1,13.9,220.8,13.1L220.8,13.1z"
   id="path154" />
	</g>
</g>
<g
   id="g166">
	
		<line
   fill="none"
   stroke="#CBCBCB"
   stroke-width="3"
   stroke-linecap="round"
   stroke-miterlimit="10"
   x1="425"
   y1="28"
   x2="400"
   y2="28"
   id="line160" />
	
		<line
   fill="none"
   stroke="#CBCBCB"
   stroke-width="3"
   stroke-linecap="round"
   stroke-miterlimit="10"
   x1="425"
   y1="19"
   x2="400"
   y2="19"
   id="line162" />
	
		<line
   fill="none"
   stroke="#CBCBCB"
   stroke-width="3"
   stroke-linecap="round"
   stroke-miterlimit="10"
   x1="425"
   y1="10"
   x2="400"
   y2="10"
   id="line164" />
</g>
<g
   id="g174">
	<g
   id="g172">
		
			<line
   fill="none"
   stroke="#CBCBCB"
   stroke-width="3"
   stroke-linecap="round"
   stroke-miterlimit="10"
   x1="417.7"
   y1="67.7"
   x2="400"
   y2="50"
   id="line168" />
		
			<line
   fill="none"
   stroke="#CBCBCB"
   stroke-width="3"
   stroke-linecap="round"
   stroke-miterlimit="10"
   x1="400"
   y1="67.7"
   x2="417.7"
   y2="50"
   id="line170" />
	</g>
</g>
<g
   id="g180">
	<g
   id="g178">
		<path
   fill="#B2B2B2"
   d="M410.6,93.5c0,2-1.5,3.5-3.5,3.5s-3.5-1.5-3.5-3.5s1.5-3.5,3.5-3.5S410.6,91.5,410.6,93.5L410.6,93.5z     M400,103c0-2.4,4.7-3.7,7.1-3.7s7.1,1.3,7.1,3.7v1.2H400V103z"
   id="path176" />
	</g>
</g>
<g
   id="g188">
	<rect
   x="443"
   y="10"
   opacity="0.9"
   fill="#B1B1B1"
   enable-background="new    "
   width="1"
   height="3"
   id="rect182" />
	<rect
   x="450"
   y="10"
   opacity="0.9"
   fill="#B1B1B1"
   enable-background="new    "
   width="1"
   height="3"
   id="rect184" />
	<path
   opacity="0.9"
   fill="#B1B1B1"
   enable-background="new    "
   d="M452,12v2h-3v-2h-4v2h-3v-2h-2v13h14V12H452z M453,24h-12v-8h12   V24z"
   id="path186" />
</g>
<polygon
   fill="#989898"
   points="450,102 446,100 446,101.5 440,101.5 440,102.5 446,102.5 446,104 "
   id="polygon190" />
<polygon
   fill="#989898"
   points="450,106.5 444,106.5 444,105 440,107 444,109 444,107.5 450,107.5 "
   id="polygon192" />
<g
   id="g198">
	<line
   fill="none"
   stroke="#FFFFFF"
   stroke-width="2"
   stroke-miterlimit="10"
   x1="471"
   y1="11"
   x2="479"
   y2="19"
   id="line194" />
	<line
   fill="none"
   stroke="#FFFFFF"
   stroke-width="2"
   stroke-miterlimit="10"
   x1="479"
   y1="11"
   x2="471"
   y2="19"
   id="line196" />
</g>
<polyline
   fill="none"
   stroke="#FC3070"
   stroke-width="2"
   stroke-miterlimit="10"
   points="470,31.8 473.2,35 478.2,30 "
   id="polyline200"
   style="stroke:#e81935;stroke-opacity:1" />
<g
   opacity="0.7"
   id="g206">
	<g
   id="g204">
		<path
   fill="#FFFFFF"
   d="M408.5,142.8c0,1.6-1.2,2.8-2.8,2.8s-2.8-1.2-2.8-2.8s1.2-2.8,2.8-2.8S408.5,141.2,408.5,142.8    L408.5,142.8z M400,150.4c0-1.9,3.8-2.9,5.7-2.9c1.9,0,5.7,1,5.7,2.9v0.9H400V150.4z"
   id="path202" />
	</g>
</g>
<g
   id="g2542"><path
     style="fill:#ffffff;fill-opacity:1"
     inkscape:connector-curvature="0"
     id="path208"
     d="m 408.5,122.8 c 0,1.6 -1.2,2.8 -2.8,2.8 -1.6,0 -2.8,-1.2 -2.8,-2.8 0,-1.6 1.2,-2.8 2.8,-2.8 1.6,0 2.8,1.2 2.8,2.8 z m -8.5,7.6 c 0,-1.9 3.8,-2.9 5.7,-2.9 1.9,0 5.7,1 5.7,2.9 v 0.9 H 400 Z" /></g>
<g
   id="g238">
	<g
   id="g236">
		<g
   id="g226">
			<g
   id="g224">
				<path
   fill="#FFFFFF"
   d="M17.9,155.8v5.2h5v3.9h-5v7.8c0,1.7,1,2.6,2.4,2.6c0.7,0,1.5-0.2,2.2-0.6l1.3,3.8      c-1.3,0.5-2.4,0.7-3.7,0.8c-3.9,0.1-6.5-2.1-6.5-6.6v-7.8H10V161h3.4v-4.7L17.9,155.8z"
   id="path214" />
				<path
   fill="#FFFFFF"
   d="M30.4,161l0.3,2.1c1.4-2.2,3.3-2.6,5.1-2.6c1.9,0,3.7,0.7,4.7,1.7l-2,3.9c-0.9-0.8-1.8-1.2-3.2-1.2      c-2.4,0-4.5,1.3-4.5,4.6v9.6h-4.5V161H30.4L30.4,161z"
   id="path216" />
				<path
   fill="#FFFFFF"
   d="M42.2,160.9v18.2h4.5v-18.2H42.2z"
   id="path218" />
				<path
   fill="#FFFFFF"
   d="M50.8,186.7V161H55l0.3,2.5c1.4-2,3.8-2.9,5.9-2.9c5.6,0,9.3,4.2,9.3,9.5s-3.4,9.5-9.2,9.5      c-1.9,0-4.8-0.6-6-2.6v9.7H50.8L50.8,186.7z M66,170.1c0-2.8-1.9-5.2-5.2-5.2c-3.2,0-5.2,2.3-5.2,5.2s2.1,5.2,5.2,5.2      C63.9,175.2,66,172.9,66,170.1z"
   id="path220" />
				<path
   fill="#FFFFFF"
   d="M85.6,165.8c-1.3-1.2-2.8-1.6-4.5-1.6c-2.1,0-3.3,0.7-3.3,1.8c0,1.2,1.1,1.8,3.4,2      c3.4,0.2,7.8,1,7.8,5.8c0,3.2-2.6,6-7.8,6c-2.9,0-5.7-0.5-8.4-3.2l2.2-3.2c1.3,1.4,4.2,2.5,6.3,2.5c1.7,0,3.3-0.8,3.3-2.2      c0-1.3-1-1.8-3.6-1.9c-3.4-0.3-7.5-1.5-7.5-5.6c0-4.2,4.3-5.7,7.7-5.7c2.8,0,5,0.6,7.1,2.4L85.6,165.8z"
   id="path222" />
			</g>
		</g>
		<path
   fill="#FFFFFF"
   d="M54.9,155.4H47c-0.2-1.3-1.1-2-2.2-2.2V150H44v3.2c-1.1,0.2-2,0.9-2.2,2.2H34v0.9h7.9    c0.4,2.9,4.8,2.9,5.2,0H55L54.9,155.4L54.9,155.4z"
   id="path228" />
		<g
   id="g234">
			<path
   fill="#FFFFFF"
   d="M39.6,157.6c0,1.1-1.7,1.1-1.7,0C37.9,156.5,39.6,156.5,39.6,157.6z"
   id="path230" />
			<path
   fill="#FFFFFF"
   d="M51.6,157.6c0,1.1-1.7,1.1-1.7,0C49.9,156.5,51.6,156.5,51.6,157.6z"
   id="path232" />
		</g>
	</g>
</g>
<g
   id="g246">
	<path
   fill="none"
   stroke="#FFFFFF"
   stroke-miterlimit="10"
   d="M451.3,75.6c0-0.9,0.6-1.6,1.5-1.7c-0.7-2.3-2.9-4-5.4-4   s-4.7,1.7-5.4,4c0.8,0.1,1.5,0.8,1.5,1.7s-0.6,1.6-1.5,1.7c0.7,2.3,2.9,4,5.4,4s4.7-1.7,5.4-4C451.9,77.2,451.3,76.5,451.3,75.6z"
   id="path240" />
	<path
   fill="none"
   stroke="#FFFFFF"
   stroke-miterlimit="10"
   d="M442,74c-0.1,0-0.2,0-0.3,0c-0.9,0-1.7,0.8-1.7,1.7s0.8,1.7,1.7,1.7   c0.1,0,0.2,0,0.3,0"
   id="path242" />
	<path
   fill="none"
   stroke="#FFFFFF"
   stroke-miterlimit="10"
   d="M452.7,77.3c0.1,0,0.2,0,0.3,0c0.9,0,1.7-0.8,1.7-1.7   s-0.8-1.7-1.7-1.7c-0.1,0-0.2,0-0.3,0"
   id="path244" />
</g>
<g
   id="g252">
	<path
   fill="none"
   stroke="#FFFFFF"
   stroke-miterlimit="10"
   d="M452.7,46c-0.6,0-1.2,0.4-1.5,0.9l-8-4.4c0.1-0.2,0.2-0.5,0.2-0.8   c0-0.9-0.8-1.7-1.7-1.7s-1.7,0.8-1.7,1.7s0.8,1.7,1.7,1.7V52c-0.9,0-1.7,0.8-1.7,1.7s0.8,1.7,1.7,1.7s1.7-0.8,1.7-1.7   c0-0.3-0.1-0.6-0.2-0.8l8-4.4c0.3,0.5,0.8,0.9,1.5,0.9c0.9,0,1.7-0.8,1.7-1.7S453.6,46,452.7,46z"
   id="path248" />
	<path
   fill="none"
   stroke="#FFFFFF"
   stroke-miterlimit="10"
   d="M451,47.7c0-0.3,0.1-0.6,0.2-0.8l-8-4.4c-0.3,0.5-0.8,0.9-1.5,0.9V52   c0.6,0,1.2,0.4,1.5,0.9l8-4.4C451,48.3,451,48,451,47.7z"
   id="path250" />
</g>
<polyline
   fill="none"
   stroke="#EB235C"
   stroke-width="2"
   stroke-miterlimit="10"
   points="481,51 476,56 471,51 "
   id="polyline254"
   style="stroke:#e81935;stroke-opacity:1" />
<polyline
   fill="none"
   stroke="#3870BF"
   stroke-width="2"
   stroke-miterlimit="10"
   points="481,71 476,76 471,71 "
   id="polyline256"
   style="stroke:#232b38;stroke-opacity:1" />
<polyline
   fill="none"
   stroke="#FFFFFF"
   stroke-width="2"
   stroke-miterlimit="10"
   points="471,91 476,96 471,101 "
   id="polyline258" />
<path
   fill="#C9C9C9"
   d="M503,16.5c0,0.5-1.2,0.8-1.2,0.8h-3.7l-3.2,5.6h-1.6l1.9-5.6H492l-0.8,1.2l-1.2,0.1l0.7-2.2l-0.7-2.2  l1.2,0.1l0.8,1.2h3.2l-1.9-5.6h1.6l3.2,5.6h3.7C501.8,15.7,503,16,503,16.5z"
   id="path260" />
<g
   id="g1321"><path
     style="fill:#254659;fill-opacity:1"
     id="path262"
     d="m 503,36.5 c 0,0.5 -1.2,0.8 -1.2,0.8 h -3.7 l -3.2,5.6 h -1.6 l 1.9,-5.6 H 492 l -0.8,1.2 -1.2,0.1 0.7,-2.2 -0.7,-2.2 1.2,0.1 0.8,1.2 h 3.2 l -1.9,-5.6 h 1.6 l 3.2,5.6 h 3.7 c 0,0.2 1.2,0.5 1.2,1 z"
     inkscape:connector-curvature="0" /></g>
<polyline
   fill="none"
   stroke="#FFFFFF"
   stroke-width="2"
   stroke-miterlimit="10"
   points="481,111 476,116 471,111 "
   id="polyline264" />
<g
   id="g2480"><line
     stroke-miterlimit="10"
     x1="510"
     y1="11"
     x2="522"
     y2="11"
     id="line266"
     style="fill:none;stroke:#e81935;stroke-width:2;stroke-miterlimit:10;stroke-opacity:1" /><line
     stroke-miterlimit="10"
     x1="510"
     y1="16"
     x2="522"
     y2="16"
     id="line268"
     style="fill:none;stroke:#e81935;stroke-width:2;stroke-miterlimit:10;stroke-opacity:1" /><line
     stroke-miterlimit="10"
     x1="510"
     y1="21"
     x2="522"
     y2="21"
     id="line270"
     style="fill:none;stroke:#e81935;stroke-width:2;stroke-miterlimit:10;stroke-opacity:1" /></g>
<g
   id="g280">
	<line
   fill="none"
   stroke="#C9C9C9"
   stroke-width="2"
   stroke-miterlimit="10"
   x1="530"
   y1="11"
   x2="542"
   y2="11"
   id="line274" />
	<line
   fill="none"
   stroke="#C9C9C9"
   stroke-width="2"
   stroke-miterlimit="10"
   x1="530"
   y1="16"
   x2="542"
   y2="16"
   id="line276" />
	<line
   fill="none"
   stroke="#C9C9C9"
   stroke-width="2"
   stroke-miterlimit="10"
   x1="530"
   y1="21"
   x2="542"
   y2="21"
   id="line278" />
</g>
<g
   id="g2490"><rect
     x="510"
     y="30"
     width="5"
     height="5"
     id="rect282"
     style="fill:#e81935;fill-opacity:1" /><rect
     x="517"
     y="30"
     width="5"
     height="5"
     id="rect284"
     style="fill:#e81935;fill-opacity:1" /><rect
     x="510"
     y="37"
     width="5"
     height="5"
     id="rect286"
     style="fill:#e81935;fill-opacity:1" /><rect
     x="517"
     y="37"
     width="5"
     height="5"
     id="rect288"
     style="fill:#e81935;fill-opacity:1" /></g>
<g
   id="g300">
	<rect
   x="530"
   y="30"
   fill="#C9C9C9"
   width="5"
   height="5"
   id="rect292" />
	<rect
   x="537"
   y="30"
   fill="#C9C9C9"
   width="5"
   height="5"
   id="rect294" />
	<rect
   x="530"
   y="37"
   fill="#C9C9C9"
   width="5"
   height="5"
   id="rect296" />
	<rect
   x="537"
   y="37"
   fill="#C9C9C9"
   width="5"
   height="5"
   id="rect298" />
</g>
<g
   opacity="0.5"
   id="g306">
	<g
   id="g304">
		<path
   fill="none"
   stroke="#3870C1"
   stroke-miterlimit="10"
   d="M502.7,59c0.6,0,1.1-0.5,1.2-1.1c0-0.6-0.4-1.2-1-1.2l-4.1-0.5    c0,0,0.9-1.4,0.9-3.6c0-1.4-1-1.6-1.6-1.6c-0.5,0-0.6,0.9-0.6,0.9l0,0c-0.1,0.6-0.2,1.1-0.7,2c-0.5,1-1.3,0.9-2.1,1.9    c-0.2,0.2-0.4,0.4-0.5,0.8c0,0,0,0,0,0.1c0,0,0,0.1-0.1,0.1c0,0.1-0.1,0.1-0.1,0.2c-0.5,0.5-1.3,0.5-1.7,0.5    c-0.7,0-1.1,0.4-1.1,1.1v4.9c0,0.7,0.3,1,1.1,1h1.1c0.5,0,1,0.3,1.6,0.5c0.9,0.3,2.2,0.5,4.5,0.5c0.4,0,1.6,0,1.6,0    c0.4,0,0.7-0.2,0.9-0.4c0.1-0.1,0.2-0.2,0.2-0.4v-0.2c0-0.6-0.4-0.9-0.6-0.9l0,0h0.7c0.6,0,1.2-0.4,1.2-1.2c0-0.6-0.5-1.1-1.1-1.1    h0.4c0.6,0,1.1-0.5,1.2-1.1C503.8,59.5,503.3,59,502.7,59L502.7,59z"
   id="path302" />
	</g>
</g>
<g
   id="g312">
	<g
   id="g310">
		<path
   fill="#FFFFFF"
   d="M502.7,79c0.6,0,1.1-0.5,1.2-1.1c0-0.6-0.4-1.2-1-1.2l-4.1-0.5c0,0,0.9-1.4,0.9-3.6c0-1.4-1-1.6-1.6-1.6    c-0.5,0-0.6,0.9-0.6,0.9l0,0c-0.1,0.6-0.2,1.1-0.7,2c-0.5,1-1.3,0.9-2.1,1.9c-0.2,0.2-0.4,0.4-0.5,0.8c0,0,0,0,0,0.1    c0,0,0,0.1-0.1,0.1c0,0.1-0.1,0.1-0.1,0.2c-0.5,0.5-1.3,0.5-1.7,0.5c-0.7,0-1.1,0.4-1.1,1.1v4.9c0,0.7,0.3,1,1.1,1h1.1    c0.5,0,1,0.3,1.6,0.5c0.9,0.3,2.2,0.5,4.5,0.5c0.4,0,1.6,0,1.6,0c0.4,0,0.7-0.2,0.9-0.4c0.1-0.1,0.2-0.2,0.2-0.4v-0.2    c0-0.6-0.4-0.9-0.6-0.9l0,0h0.7c0.6,0,1.2-0.4,1.2-1.2c0-0.6-0.5-1.1-1.1-1.1h0.4c0.6,0,1.1-0.5,1.2-1.1    C503.8,79.5,503.3,79,502.7,79L502.7,79z"
   id="path308" />
	</g>
</g>
<g
   id="g318">
	<line
   fill="none"
   stroke="#C9C9C9"
   stroke-width="2"
   stroke-miterlimit="10"
   x1="512"
   y1="52"
   x2="524"
   y2="64"
   id="line314" />
	<line
   fill="none"
   stroke="#C9C9C9"
   stroke-width="2"
   stroke-miterlimit="10"
   x1="524"
   y1="52"
   x2="512"
   y2="64"
   id="line316" />
</g>
<path
   fill="#B0B0B0"
   d="M571.6,10l-6.4,8.3l1.6-8.3h-4.4L550,26h9.2h4.5h9.2l3.1-16H571.6z M552,25l10.8-14h2.7l-1.7,9.1L560,25H552  z"
   id="path320" />
<path
   fill="#FFFFFF"
   d="M571.6,30l-6.4,8.3l1.6-8.3h-4.4L550,46h9.2h4.5h9.2l3.1-16H571.6z M552,45l10.8-14h2.7l-1.7,9.1L560,45H552  z"
   id="path322" />
<g
   opacity="0.8"
   id="g328">
	<polyline
   fill="#969696"
   points="565.8,50 557.9,57.9 550,50  "
   id="polyline324" />
	<line
   fill="none"
   stroke="#969696"
   stroke-width="2"
   stroke-miterlimit="10"
   x1="557.9"
   y1="52.5"
   x2="557.9"
   y2="63"
   id="line326" />
</g>
<g
   id="g336">
	
		<line
   fill="none"
   stroke="#FFFFFF"
   stroke-width="3"
   stroke-linecap="round"
   stroke-miterlimit="10"
   x1="425"
   y1="188"
   x2="400"
   y2="188"
   id="line330" />
	
		<line
   fill="none"
   stroke="#FFFFFF"
   stroke-width="3"
   stroke-linecap="round"
   stroke-miterlimit="10"
   x1="425"
   y1="179"
   x2="400"
   y2="179"
   id="line332" />
	
		<line
   fill="none"
   stroke="#FFFFFF"
   stroke-width="3"
   stroke-linecap="round"
   stroke-miterlimit="10"
   x1="425"
   y1="170"
   x2="400"
   y2="170"
   id="line334" />
</g>
<g
   id="g344">
	<g
   id="g342">
		
			<line
   fill="none"
   stroke="#FFFFFF"
   stroke-width="3"
   stroke-linecap="round"
   stroke-miterlimit="10"
   x1="417.7"
   y1="227.7"
   x2="400"
   y2="210"
   id="line338" />
		
			<line
   fill="none"
   stroke="#FFFFFF"
   stroke-width="3"
   stroke-linecap="round"
   stroke-miterlimit="10"
   x1="400"
   y1="227.7"
   x2="417.7"
   y2="210"
   id="line340" />
	</g>
</g>
<path
   fill="#4569DB"
   d="M503.7,98.5l-4.3,0.1l-3.7,6.5h-1.9l2.2-6.4l-3.7-0.1l-0.9,1.4H490l0.8-2.5L490,95l1.4,0.1l0.9,1.4l3.7-0.1  l-2.2-6.4h1.9l3.7,6.5l4.3,0.1c0,0,1.3,0.4,1.3,1C505,98.1,503.7,98.5,503.7,98.5z"
   id="path346"
   style="fill:#232b38;fill-opacity:1" />
<g
   id="g3196"><path
     id="SVGID_1_"
     enable-background="new    "
     d="m 149.4,152.3 c 1.3,-0.4 2.7,-0.8 4,-1.1 1.3,-0.4 2.7,-0.8 4,-1.1 0.8,-0.2 1.5,1 1.5,2.7 0,1.6 0,3.1 0,4.7 0,1.6 0,3.1 0,4.7 0,1.7 -0.7,2.9 -1.5,2.7 -1.3,-0.4 -2.7,-0.8 -4,-1.1 -1.3,-0.4 -2.7,-0.8 -4,-1.1 -0.8,-0.2 -1.5,-1.3 -1.5,-2.3 0,-0.9 0,-1.9 0,-2.8 0,-0.9 0,-1.9 0,-2.8 0,-1.2 0.7,-2.3 1.5,-2.5"
     style="opacity:0.5;fill:url(#SVGID_2_)"
     inkscape:connector-curvature="0" /><g
     id="g393">
				<g
   id="g391">
					<g
   id="g389">
						<g
   id="g387">
							<g
   id="g385">
								<g
   id="g383">
									<g
   id="g381">
										<g
   id="g379">
											<g
   id="g377">
												<g
   id="g375">
													<g
   id="g373">
														<g
   id="g371">
															<g
   id="g369">
																<defs
   id="defs357">
																	<path
   id="SVGID_3_"
   d="m 149.4,152.3 c 1.3,-0.4 2.7,-0.8 4,-1.1 1.3,-0.4 2.7,-0.8 4,-1.1 0.8,-0.2 1.5,1 1.5,2.7 0,1.6 0,3.1 0,4.7 0,1.6 0,3.1 0,4.7 0,1.7 -0.7,2.9 -1.5,2.7 -1.3,-0.4 -2.7,-0.8 -4,-1.1 -1.3,-0.4 -2.7,-0.8 -4,-1.1 -0.8,-0.2 -1.5,-1.3 -1.5,-2.3 0,-0.9 0,-1.9 0,-2.8 0,-0.9 0,-1.9 0,-2.8 0,-1.2 0.7,-2.3 1.5,-2.5"
   inkscape:connector-curvature="0" />
																</defs>
																<clipPath
   id="SVGID_4_">
																	<use
   xlink:href="#SVGID_3_"
   overflow="visible"
   id="use359"
   style="overflow:visible"
   x="0"
   y="0"
   width="100%"
   height="100%" />
																</clipPath>
																
																	<linearGradient
   id="SVGID_6_"
   gradientUnits="userSpaceOnUse"
   x1="147.94099"
   y1="457.39999"
   x2="158.94099"
   y2="457.39999"
   gradientTransform="translate(0,-300)">
																	<stop
   offset="0"
   style="stop-color:#FFFFFF"
   id="stop362" />
																	<stop
   offset="1"
   style="stop-color:#989898"
   id="stop364" />
																</linearGradient>
																<rect
   x="147.89999"
   y="149.8"
   clip-path="url(#SVGID_4_)"
   width="11"
   height="15.2"
   id="rect367"
   style="fill:url(#SVGID_6_)" />
															</g>
														</g>
													</g>
												</g>
											</g>
										</g>
									</g>
								</g>
							</g>
						</g>
					</g>
				</g>
			</g><path
     id="SVGID_5_"
     d="m 129.5,152.3 c -1.3,-0.4 -2.7,-0.8 -4,-1.1 -1.3,-0.4 -2.7,-0.8 -4,-1.1 -0.8,-0.2 -1.5,1 -1.5,2.7 0,1.6 0,3.1 0,4.7 0,1.6 0,3.1 0,4.7 0,1.7 0.7,2.9 1.5,2.7 1.3,-0.4 2.7,-0.8 4,-1.1 1.3,-0.4 2.7,-0.8 4,-1.1 0.8,-0.2 1.5,-1.3 1.5,-2.3 0,-0.9 0,-1.9 0,-2.8 0,-0.9 0,-1.9 0,-2.8 0,-1.2 -0.7,-2.3 -1.5,-2.5"
     style="fill:url(#SVGID_7_)"
     inkscape:connector-curvature="0" /><g
     id="g444">
				<g
   id="g442">
					<g
   id="g440">
						<g
   id="g438">
							<g
   id="g436">
								<g
   id="g434">
									<g
   id="g432">
										<g
   id="g430">
											<g
   id="g428">
												<g
   id="g426">
													<g
   id="g424">
														<g
   id="g422">
															<g
   id="g420">
																<defs
   id="defs408">
																	<path
   id="SVGID_8_"
   d="m 129.5,152.3 c -1.3,-0.4 -2.7,-0.8 -4,-1.1 -1.3,-0.4 -2.7,-0.8 -4,-1.1 -0.8,-0.2 -1.5,1 -1.5,2.7 0,1.6 0,3.1 0,4.7 0,1.6 0,3.1 0,4.7 0,1.7 0.7,2.9 1.5,2.7 1.3,-0.4 2.7,-0.8 4,-1.1 1.3,-0.4 2.7,-0.8 4,-1.1 0.8,-0.2 1.5,-1.3 1.5,-2.3 0,-0.9 0,-1.9 0,-2.8 0,-0.9 0,-1.9 0,-2.8 0,-1.2 -0.7,-2.3 -1.5,-2.5"
   inkscape:connector-curvature="0" />
																</defs>
																<clipPath
   id="SVGID_10_">
																	<use
   xlink:href="#SVGID_8_"
   overflow="visible"
   id="use410"
   style="overflow:visible"
   x="0"
   y="0"
   width="100%"
   height="100%" />
																</clipPath>
																
																	<linearGradient
   id="SVGID_11_"
   gradientUnits="userSpaceOnUse"
   x1="120"
   y1="457.39999"
   x2="131"
   y2="457.39999"
   gradientTransform="translate(0,-300)">
																	<stop
   offset="0"
   style="stop-color:#CBCBCB"
   id="stop413" />
																	<stop
   offset="1"
   style="stop-color:#FFFFFF"
   id="stop415" />
																</linearGradient>
																<rect
   x="120"
   y="149.8"
   clip-path="url(#SVGID_10_)"
   width="11"
   height="15.2"
   id="rect418"
   style="fill:url(#SVGID_11_)" />
															</g>
														</g>
													</g>
												</g>
											</g>
										</g>
									</g>
								</g>
							</g>
						</g>
					</g>
				</g>
			</g><path
     id="SVGID_9_"
     d="m 142.3,152.3 c 0.7,-0.4 1.3,-0.8 2,-1.1 0.7,-0.4 1.3,-0.8 2,-1.1 0.4,-0.2 0.7,1 0.7,2.7 0,1.6 0,3.1 0,4.7 0,1.6 0,3.1 0,4.7 0,1.7 -0.3,2.9 -0.7,2.7 -0.7,-0.4 -1.3,-0.8 -2,-1.1 -0.7,-0.3 -1.3,-0.8 -2,-1.1 -0.4,-0.2 -0.7,-1.3 -0.7,-2.3 0,-0.9 0,-1.9 0,-2.8 0,-0.9 0,-1.9 0,-2.8 0,-1.2 0.3,-2.3 0.7,-2.5"
     style="fill:url(#SVGID_12_)"
     inkscape:connector-curvature="0" /><g
     id="g495">
				<g
   id="g493">
					<g
   id="g491">
						<g
   id="g489">
							<g
   id="g487">
								<g
   id="g485">
									<g
   id="g483">
										<g
   id="g481">
											<g
   id="g479">
												<g
   id="g477">
													<g
   id="g475">
														<g
   id="g473">
															<g
   id="g471">
																<defs
   id="defs459">
																	<path
   id="SVGID_14_"
   d="m 142.3,152.3 c 0.7,-0.4 1.3,-0.8 2,-1.1 0.7,-0.4 1.3,-0.8 2,-1.1 0.4,-0.2 0.7,1 0.7,2.7 0,1.6 0,3.1 0,4.7 0,1.6 0,3.1 0,4.7 0,1.7 -0.3,2.9 -0.7,2.7 -0.7,-0.4 -1.3,-0.8 -2,-1.1 -0.7,-0.3 -1.3,-0.8 -2,-1.1 -0.4,-0.2 -0.7,-1.3 -0.7,-2.3 0,-0.9 0,-1.9 0,-2.8 0,-0.9 0,-1.9 0,-2.8 0,-1.2 0.3,-2.3 0.7,-2.5"
   inkscape:connector-curvature="0" />
																</defs>
																<clipPath
   id="SVGID_16_">
																	<use
   xlink:href="#SVGID_14_"
   overflow="visible"
   id="use461"
   style="overflow:visible"
   x="0"
   y="0"
   width="100%"
   height="100%" />
																</clipPath>
																
																	<linearGradient
   id="SVGID_18_"
   gradientUnits="userSpaceOnUse"
   x1="141.582"
   y1="457.39999"
   x2="147.082"
   y2="457.39999"
   gradientTransform="translate(0,-300)">
																	<stop
   offset="0"
   style="stop-color:#E5E5E5"
   id="stop464" />
																	<stop
   offset="1"
   style="stop-color:#989898"
   id="stop466" />
																</linearGradient>
																<rect
   x="141.60001"
   y="149.8"
   clip-path="url(#SVGID_16_)"
   width="5.5"
   height="15.2"
   id="rect469"
   style="fill:url(#SVGID_18_)" />
															</g>
														</g>
													</g>
												</g>
											</g>
										</g>
									</g>
								</g>
							</g>
						</g>
					</g>
				</g>
			</g><path
     id="SVGID_13_"
     enable-background="new    "
     d="m 136.6,152.3 c -0.7,-0.4 -1.3,-0.8 -2,-1.1 -0.7,-0.4 -1.3,-0.8 -2,-1.1 -0.4,-0.2 -0.7,1 -0.7,2.7 0,1.6 0,3.1 0,4.7 0,1.6 0,3.1 0,4.7 0,1.7 0.3,2.9 0.7,2.7 0.7,-0.4 1.3,-0.8 2,-1.1 0.7,-0.3 1.3,-0.8 2,-1.1 0.4,-0.2 0.7,-1.3 0.7,-2.3 0,-0.9 0,-1.9 0,-2.8 0,-0.9 0,-1.9 0,-2.8 0.1,-1.2 -0.3,-2.3 -0.7,-2.5"
     inkscape:connector-curvature="0"
     style="opacity:0.9;fill:#ffffff" /><g
     id="g536">
				<g
   id="g534">
					<g
   id="g532">
						<g
   id="g530">
							<g
   id="g528">
								<g
   id="g526">
									<g
   id="g524">
										<g
   id="g522">
											<g
   id="g520">
												<g
   id="g518">
													<g
   id="g516">
														<g
   id="g514">
															<g
   id="g512">
																<defs
   id="defs505">
																	<path
   id="SVGID_19_"
   d="m 136.6,152.3 c -0.7,-0.4 -1.3,-0.8 -2,-1.1 -0.7,-0.4 -1.3,-0.8 -2,-1.1 -0.4,-0.2 -0.7,1 -0.7,2.7 0,1.6 0,3.1 0,4.7 0,1.6 0,3.1 0,4.7 0,1.7 0.3,2.9 0.7,2.7 0.7,-0.4 1.3,-0.8 2,-1.1 0.7,-0.3 1.3,-0.8 2,-1.1 0.4,-0.2 0.7,-1.3 0.7,-2.3 0,-0.9 0,-1.9 0,-2.8 0,-0.9 0,-1.9 0,-2.8 0.1,-1.2 -0.3,-2.3 -0.7,-2.5"
   inkscape:connector-curvature="0" />
																</defs>
																<clipPath
   id="SVGID_20_">
																	<use
   xlink:href="#SVGID_19_"
   overflow="visible"
   id="use507"
   style="overflow:visible"
   x="0"
   y="0"
   width="100%"
   height="100%" />
																</clipPath>
																<rect
   x="131.89999"
   y="149.8"
   clip-path="url(#SVGID_20_)"
   width="5.5"
   height="15.2"
   id="rect510"
   style="fill:#ffffff" />
															</g>
														</g>
													</g>
												</g>
											</g>
										</g>
									</g>
								</g>
							</g>
						</g>
					</g>
				</g>
			</g><path
     id="SVGID_15_"
     enable-background="new    "
     d="m 140,152.3 c 0.1,-0.4 0.2,-0.8 0.3,-1.1 0.1,-0.3 0.2,-0.8 0.3,-1.1 0.1,-0.2 0.1,1 0.1,2.7 0,1.6 0,3.1 0,4.7 0,1.6 0,3.1 0,4.7 0,1.7 -0.1,2.9 -0.1,2.7 -0.1,-0.4 -0.2,-0.8 -0.3,-1.1 -0.1,-0.3 -0.2,-0.8 -0.3,-1.1 -0.1,-0.2 -0.1,-1.3 -0.1,-2.3 0,-0.9 0,-1.9 0,-2.8 0,-0.9 0,-1.9 0,-2.8 0,-1.2 0,-2.3 0.1,-2.5"
     inkscape:connector-curvature="0"
     style="opacity:0.7;fill:#ffffff" /><g
     id="g577">
				<g
   id="g575">
					<g
   id="g573">
						<g
   id="g571">
							<g
   id="g569">
								<g
   id="g567">
									<g
   id="g565">
										<g
   id="g563">
											<g
   id="g561">
												<g
   id="g559">
													<g
   id="g557">
														<g
   id="g555">
															<g
   id="g553">
																<defs
   id="defs546">
																	<path
   id="SVGID_21_"
   d="m 140,152.3 c 0.1,-0.4 0.2,-0.8 0.3,-1.1 0.1,-0.3 0.2,-0.8 0.3,-1.1 0.1,-0.2 0.1,1 0.1,2.7 0,1.6 0,3.1 0,4.7 0,1.6 0,3.1 0,4.7 0,1.7 -0.1,2.9 -0.1,2.7 -0.1,-0.4 -0.2,-0.8 -0.3,-1.1 -0.1,-0.3 -0.2,-0.8 -0.3,-1.1 -0.1,-0.2 -0.1,-1.3 -0.1,-2.3 0,-0.9 0,-1.9 0,-2.8 0,-0.9 0,-1.9 0,-2.8 0,-1.2 0,-2.3 0.1,-2.5"
   inkscape:connector-curvature="0" />
																</defs>
																<clipPath
   id="SVGID_22_">
																	<use
   xlink:href="#SVGID_21_"
   overflow="visible"
   id="use548"
   style="overflow:visible"
   x="0"
   y="0"
   width="100%"
   height="100%" />
																</clipPath>
																<rect
   x="139.89999"
   y="149.8"
   clip-path="url(#SVGID_22_)"
   width="0.80000001"
   height="15.2"
   id="rect551"
   style="fill:#ffffff" />
															</g>
														</g>
													</g>
												</g>
											</g>
										</g>
									</g>
								</g>
							</g>
						</g>
					</g>
				</g>
			</g><path
     id="SVGID_17_"
     enable-background="new    "
     d="m 138.9,152.3 c -0.1,-0.4 -0.2,-0.8 -0.3,-1.1 -0.1,-0.3 -0.2,-0.8 -0.3,-1.1 -0.1,-0.2 -0.1,1 -0.1,2.7 0,1.6 0,3.1 0,4.7 0,1.6 0,3.1 0,4.7 0,1.7 0,2.9 0.1,2.7 0.1,-0.4 0.2,-0.8 0.3,-1.1 0.1,-0.3 0.2,-0.8 0.3,-1.1 0.1,-0.2 0.1,-1.3 0.1,-2.3 0,-0.9 0,-1.9 0,-2.8 0,-0.9 0,-1.9 0,-2.8 0,-1.2 0,-2.3 -0.1,-2.5"
     inkscape:connector-curvature="0"
     style="opacity:0.8;fill:#ffffff" /><g
     id="g618">
				<g
   id="g616">
					<g
   id="g614">
						<g
   id="g612">
							<g
   id="g610">
								<g
   id="g608">
									<g
   id="g606">
										<g
   id="g604">
											<g
   id="g602">
												<g
   id="g600">
													<g
   id="g598">
														<g
   id="g596">
															<g
   id="g594">
																<defs
   id="defs587">
																	<path
   id="SVGID_23_"
   d="m 138.9,152.3 c -0.1,-0.4 -0.2,-0.8 -0.3,-1.1 -0.1,-0.3 -0.2,-0.8 -0.3,-1.1 -0.1,-0.2 -0.1,1 -0.1,2.7 0,1.6 0,3.1 0,4.7 0,1.6 0,3.1 0,4.7 0,1.7 0,2.9 0.1,2.7 0.1,-0.4 0.2,-0.8 0.3,-1.1 0.1,-0.3 0.2,-0.8 0.3,-1.1 0.1,-0.2 0.1,-1.3 0.1,-2.3 0,-0.9 0,-1.9 0,-2.8 0,-0.9 0,-1.9 0,-2.8 0,-1.2 0,-2.3 -0.1,-2.5"
   inkscape:connector-curvature="0" />
																</defs>
																<clipPath
   id="SVGID_24_">
																	<use
   xlink:href="#SVGID_23_"
   overflow="visible"
   id="use589"
   style="overflow:visible"
   x="0"
   y="0"
   width="100%"
   height="100%" />
																</clipPath>
																<rect
   x="138.2"
   y="149.8"
   clip-path="url(#SVGID_24_)"
   width="0.80000001"
   height="15.2"
   id="rect592"
   style="fill:#ffffff" />
															</g>
														</g>
													</g>
												</g>
											</g>
										</g>
									</g>
								</g>
							</g>
						</g>
					</g>
				</g>
			</g><path
     style="fill:#ffffff"
     inkscape:connector-curvature="0"
     id="path624"
     d="m 154.1,170.4 c -0.1,0 -0.2,0 -0.3,0 -0.1,0 -0.2,0 -0.3,0 -0.4,0 -0.7,0 -1.1,0.1 -0.3,0.1 -0.6,0.1 -0.9,0.2 v 4.5 h 1.2 v -3.8 c 0.1,0 0.2,-0.1 0.3,-0.1 0.1,0 0.2,0 0.3,0 0.1,0 0.2,0 0.3,0 0.1,0 0.2,0 0.3,0.1 z m -4.2,1.9 -2,0.3 c 0,-0.3 0.1,-0.5 0.1,-0.7 0.1,-0.2 0.2,-0.4 0.4,-0.5 0.2,-0.1 0.3,-0.2 0.6,-0.2 0.2,0 0.3,0 0.5,0.1 0.1,0.1 0.2,0.2 0.3,0.4 0,0.2 0.1,0.4 0.1,0.6 z m 1.1,0.2 c 0,-0.3 0,-0.6 -0.1,-0.9 -0.1,-0.3 -0.2,-0.5 -0.4,-0.7 -0.2,-0.2 -0.4,-0.3 -0.6,-0.4 -0.3,-0.1 -0.5,-0.2 -0.9,-0.2 -0.3,0 -0.7,0.1 -0.9,0.2 -0.3,0.1 -0.5,0.3 -0.7,0.5 -0.2,0.2 -0.3,0.5 -0.4,0.8 -0.1,0.3 -0.1,0.6 -0.1,1 0,0.4 0.1,0.7 0.2,1 0.1,0.3 0.3,0.6 0.5,0.8 0.2,0.2 0.5,0.4 0.7,0.5 0.3,0.1 0.6,0.2 1,0.2 0.2,0 0.5,0 0.7,0 0.2,0 0.4,-0.1 0.6,-0.1 0.2,-0.1 0.3,-0.1 0.5,-0.2 l -0.3,-0.9 c -0.1,0.1 -0.2,0.1 -0.4,0.2 -0.1,0 -0.3,0.1 -0.5,0.1 -0.2,0 -0.3,0 -0.5,0 -0.2,0 -0.4,0 -0.6,-0.1 -0.2,-0.1 -0.3,-0.2 -0.5,-0.3 -0.1,-0.2 -0.2,-0.3 -0.2,-0.6 l 3.1,-0.4 c 0,-0.1 0,-0.1 0,-0.2 -0.2,-0.2 -0.2,-0.2 -0.2,-0.3 z m -4.7,2.7 v -6.9 h -1.2 v 6.9 z m -1.9,0 v -6.9 h -1.2 v 6.9 z m -2.9,-2.9 -2,0.3 c 0,-0.3 0.1,-0.5 0.1,-0.7 0.1,-0.2 0.2,-0.4 0.4,-0.5 0.2,-0.1 0.3,-0.2 0.6,-0.2 0.2,0 0.3,0 0.5,0.1 0.1,0.1 0.2,0.2 0.3,0.4 0.1,0.2 0.1,0.4 0.1,0.6 z m 1.2,0.2 c 0,-0.3 0,-0.6 -0.1,-0.9 -0.1,-0.3 -0.2,-0.5 -0.4,-0.7 -0.2,-0.2 -0.4,-0.3 -0.6,-0.4 -0.3,-0.1 -0.5,-0.2 -0.9,-0.2 -0.3,0 -0.7,0.1 -0.9,0.2 -0.3,0.1 -0.5,0.3 -0.7,0.5 -0.2,0.2 -0.3,0.5 -0.4,0.8 -0.1,0.3 -0.1,0.6 -0.1,1 0,0.4 0.1,0.7 0.2,1 0.1,0.3 0.3,0.6 0.5,0.8 0.2,0.2 0.5,0.4 0.7,0.5 0.3,0.1 0.6,0.2 1,0.2 0.2,0 0.5,0 0.7,0 0.2,0 0.4,-0.1 0.6,-0.1 0.2,-0.1 0.3,-0.1 0.5,-0.2 l -0.3,-0.9 c -0.1,0.1 -0.2,0.1 -0.4,0.2 -0.1,0 -0.3,0.1 -0.5,0.1 -0.2,0 -0.3,0 -0.5,0 -0.2,0 -0.4,0 -0.6,-0.1 -0.2,-0.1 -0.3,-0.2 -0.5,-0.3 -0.2,-0.1 -0.2,-0.3 -0.2,-0.6 l 3.1,-0.4 c 0,-0.1 0,-0.1 0,-0.2 -0.2,-0.2 -0.2,-0.2 -0.2,-0.3 z m -4.4,2.6 v -1 c 0,0 -0.1,0 -0.2,0 -0.1,0 -0.1,0 -0.2,0 -0.1,0 -0.2,0 -0.3,0 -0.1,0 -0.1,-0.1 -0.2,-0.2 0,-0.1 -0.1,-0.2 -0.1,-0.3 v -2.3 h 0.9 v -0.9 h -0.9 V 169 l -1.2,0.3 v 1.1 h -0.6 v 0.9 h 0.6 v 2.4 c 0,0.5 0.1,0.9 0.3,1.1 0.2,0.3 0.6,0.4 1,0.4 0.1,0 0.2,0 0.3,0 0.1,0 0.2,0 0.3,0 0.2,0 0.2,0 0.3,-0.1 z m -3.1,0.1 v -4.8 H 134 v 4.8 z m 0.1,-6.2 c 0,-0.1 0,-0.2 -0.1,-0.3 -0.1,-0.1 -0.1,-0.2 -0.2,-0.2 -0.1,-0.1 -0.2,-0.1 -0.3,-0.1 -0.1,0 -0.2,0 -0.3,0.1 -0.1,0.1 -0.2,0.1 -0.2,0.2 0,0.1 -0.1,0.2 -0.1,0.3 0,0.1 0,0.2 0.1,0.3 0.1,0.1 0.1,0.2 0.2,0.2 0.1,0.1 0.2,0.1 0.3,0.1 0.1,0 0.2,0 0.3,-0.1 0.1,-0.1 0.2,-0.1 0.2,-0.2 0.1,0 0.1,-0.1 0.1,-0.3 z m -1.9,6.2 v -3.3 c 0,-0.3 -0.1,-0.6 -0.2,-0.9 -0.1,-0.2 -0.4,-0.4 -0.7,-0.5 -0.3,-0.1 -0.7,-0.2 -1.2,-0.2 -0.4,0 -0.7,0 -1.1,0.1 -0.3,0.1 -0.6,0.1 -0.8,0.2 v 4.5 h 1.2 v -3.8 c 0.1,0 0.2,-0.1 0.3,-0.1 0.1,0 0.3,0 0.4,0 0.3,0 0.5,0.1 0.6,0.2 0.1,0.1 0.2,0.3 0.2,0.6 v 3.1 z m -4.6,-0.2 v -4.5 h -1.2 v 3.8 c -0.1,0 -0.2,0.1 -0.3,0.1 -0.1,0 -0.3,0 -0.4,0 -0.3,0 -0.5,-0.1 -0.6,-0.2 -0.1,-0.1 -0.2,-0.3 -0.2,-0.6 v -3.1 h -1.2 v 3.1 c 0,0.4 0.1,0.7 0.2,1 0.2,0.3 0.4,0.5 0.7,0.6 0.3,0.1 0.7,0.2 1.1,0.2 0.2,0 0.5,0 0.7,0 0.2,0 0.5,-0.1 0.7,-0.1 0.2,-0.2 0.3,-0.3 0.5,-0.3 z" /><path
     d="m 137.9,174.2 c -0.1,0 -0.2,0 -0.3,0 -0.1,0 -0.1,-0.1 -0.2,-0.2 0,-0.1 -0.1,-0.2 -0.1,-0.3 v -0.9 h -1.2 v 1 c 0,0.5 0.1,0.9 0.3,1.1 0.2,0.3 0.6,0.4 1,0.4 0.1,0 0.2,0 0.3,0 0.1,0 0.2,0 0.3,0 0.1,0 0.1,0 0.2,-0.1 v -1 c 0,0 -0.1,0 -0.2,0 0,0 0,0 -0.1,0 z"
     id="path626"
     inkscape:connector-curvature="0"
     style="fill:#ffffff" /><rect
     x="134"
     y="172.8"
     width="1.2"
     height="2.4000001"
     id="rect628"
     style="fill:#ffffff" /><rect
     x="132.2"
     y="172.8"
     width="1.2"
     height="2.4000001"
     id="rect630"
     style="fill:#ffffff" /><path
     d="m 127.6,172.8 v 1.4 c -0.1,0 -0.2,0.1 -0.3,0.1 -0.1,0 -0.3,0 -0.4,0 -0.3,0 -0.5,-0.1 -0.6,-0.2 -0.1,-0.1 -0.2,-0.3 -0.2,-0.6 v -0.8 h -1.2 v 0.8 c 0,0.4 0.1,0.7 0.2,1 0.2,0.3 0.4,0.5 0.7,0.6 0.3,0.1 0.7,0.2 1.1,0.2 0.2,0 0.5,0 0.7,0 0.2,0 0.5,-0.1 0.7,-0.1 0.2,-0.1 0.4,-0.1 0.5,-0.2 v -2.2 z"
     id="path632"
     inkscape:connector-curvature="0"
     style="fill:#ffffff" /><rect
     x="129.39999"
     y="172.8"
     width="1.2"
     height="2.4000001"
     id="rect634"
     style="fill:#ffffff" /><path
     d="m 151,172.8 h -4.2 v 0 c 0,0.4 0.1,0.7 0.2,1 0.1,0.3 0.3,0.6 0.5,0.8 0.2,0.2 0.5,0.4 0.7,0.5 0.3,0.1 0.6,0.2 1,0.2 0.2,0 0.5,0 0.7,0 0.2,0 0.4,-0.1 0.6,-0.1 0.2,-0.1 0.3,-0.1 0.5,-0.2 l -0.3,-0.9 c -0.1,0.1 -0.2,0.1 -0.4,0.2 -0.1,0 -0.3,0.1 -0.5,0.1 -0.2,0 -0.3,0 -0.5,0 -0.2,0 -0.4,0 -0.6,-0.1 -0.2,-0.1 -0.3,-0.2 -0.5,-0.3 -0.2,-0.1 -0.2,-0.3 -0.2,-0.6 l 3.1,-0.4 c -0.1,-0.1 -0.1,-0.2 -0.1,-0.2 z"
     id="path636"
     inkscape:connector-curvature="0"
     style="fill:#ffffff" /><rect
     x="151.5"
     y="172.8"
     width="1.2"
     height="2.4000001"
     id="rect638"
     style="fill:#ffffff" /><rect
     x="143.2"
     y="172.8"
     width="1.2"
     height="2.4000001"
     id="rect640"
     style="fill:#ffffff" /><path
     d="m 142.7,172.8 h -4.2 v 0 c 0,0.4 0.1,0.7 0.2,1 0.1,0.3 0.3,0.6 0.5,0.8 0.2,0.2 0.5,0.4 0.7,0.5 0.3,0.1 0.6,0.2 1,0.2 0.2,0 0.5,0 0.7,0 0.2,0 0.4,-0.1 0.6,-0.1 0.2,-0.1 0.3,-0.1 0.5,-0.2 l -0.3,-0.9 c -0.1,0.1 -0.2,0.1 -0.4,0.2 -0.1,0 -0.3,0.1 -0.5,0.1 -0.2,0 -0.3,0 -0.5,0 -0.2,0 -0.4,0 -0.6,-0.1 -0.2,-0.1 -0.3,-0.2 -0.5,-0.3 -0.2,-0.1 -0.2,-0.3 -0.2,-0.6 l 3.1,-0.4 c -0.1,-0.1 -0.1,-0.2 -0.1,-0.2 z"
     id="path642"
     inkscape:connector-curvature="0"
     style="fill:#ffffff" /><rect
     x="145.10001"
     y="172.8"
     width="1.2"
     height="2.4000001"
     id="rect644"
     style="fill:#ffffff" /></g>
<g
   id="g662">
	<polygon
   fill="#FFFFFF"
   points="565.2,88 553.9,88 552.8,79.6 567.8,79.6  "
   id="polygon652" />
	<g
   id="g656">
		<polygon
   fill="#FFFFFF"
   points="553.8,81.4 552.3,79.8 549.7,79.8 549.7,77.8 553,77.8 555.3,80   "
   id="polygon654" />
	</g>
	<circle
   fill="#FFFFFF"
   cx="555.2"
   cy="91.8"
   r="1.4"
   id="circle658" />
	<circle
   fill="#FFFFFF"
   cx="562.3"
   cy="91.8"
   r="1.4"
   id="circle660" />
</g>
<circle
   opacity="0.8"
   fill="#3B6FB5"
   enable-background="new    "
   cx="559.4"
   cy="109"
   r="10"
   id="circle664"
   style="fill:#232b38;fill-opacity:1" />
<path
   fill="#FFFFFF"
   d="M564.2,110.4c-0.2-0.2-0.4-0.2-0.6-0.2h-2.9l-2.7,0.3l-0.5-1.4c0,0,4.8-0.3,4.8-0.7s-0.3-0.7-0.7-0.7H557  l-0.9-2.2v-2.3c0-0.5-0.4-1-1-1s-1,0.4-1,1v2.5c0,0.1,0,0.2,0.1,0.3l2.3,6c0.1,0.4,0.5,0.6,0.9,0.6h2.1v2H557  c-0.3,0-0.5,0.2-0.5,0.5s0.2,0.5,0.5,0.5h5.9c0.3,0,0.5-0.2,0.5-0.5s-0.2-0.5-0.5-0.5h-2.5v-2h2.9c0.5,0,0.9-0.4,0.9-0.8l0,0  l0.1-0.6C564.6,111,564.5,110.6,564.2,110.4z"
   id="path666" />
<g
   id="g672">
	<path
   fill="#FFFFFF"
   d="M566,132.2l0.9-0.9l0.3,0.3c0.2,0.2,0.6,0.2,0.9,0c0.2-0.2,0.2-0.6,0-0.9l-1.3-1.3c-0.2-0.2-0.6-0.2-0.9,0   c-0.2,0.2-0.2,0.6,0,0.9l0.3,0.3l-0.9,0.9c-1.5-1.4-3.4-2.3-5.6-2.5v-0.8h0.6c0.6,0,1-0.5,1-1c0-0.6-0.5-1-1-1h-3.1   c-0.6,0-1,0.5-1,1c0,0.6,0.5,1,1,1h0.7v0.8l0,0c-2.3,0.2-4.3,1.2-5.8,2.7l-0.5,0.6c-1.4,1.7-2.3,3.9-2.3,6.2c0,5.3,4.3,9.6,9.6,9.6   s9.6-4.3,9.6-9.6C568.3,136,567.4,133.8,566,132.2L566,132.2z M558.7,146.4c-4.4,0-8-3.6-8-8s3.6-8,8-8s8,3.6,8,8   C566.7,142.8,563.1,146.4,558.7,146.4L558.7,146.4z"
   id="path668" />
	<path
   fill="#FFFFFF"
   d="M559.4,137.7v-5l-0.6-0.9l-0.7,0.9v5c-0.4,0.2-0.6,0.6-0.6,1.1c0,0.7,0.5,1.2,1.2,1.2s1.2-0.5,1.2-1.2   C560,138.3,559.7,137.9,559.4,137.7L559.4,137.7z"
   id="path670" />
</g>
<path
   opacity="0.8"
   fill="#3B6FB5"
   enable-background="new    "
   d="M560,154.9c-5.5,0-10,4.5-10,10c0,4,2.3,7.4,5.7,9l0.3-6  c0,0-0.6-0.2-0.7-0.3c-1.2-0.6-2.2-2.2-2.2-4.3c0-2.3,1.8-4.3,3.5-4.3l0,0c1.7,0,3.5,2,3.5,4.3c0,2.1-0.9,3.7-2.2,4.3l-0.7,0.3  l0.4,6.7c0.8,0.2,1.6,0.3,2.4,0.3c1.1,0,2.2-0.2,3.2-0.5l0.3-6c-0.8-0.2-1.5-0.7-2-1.4c-0.5-0.8,0.4-8,0.4-8h0.8v7.2h1V159h0.8v7.2  h1V159h0.8c0,0,1,7.2,0.4,8c-0.4,0.6-1.1,1.2-1.9,1.3l0,0l0.3,5.2c3-1.7,5-4.9,5-8.6C570,159.4,565.5,154.9,560,154.9z"
   id="path674"
   style="fill:#232b38;fill-opacity:1" />
<polyline
   fill="none"
   stroke="#FFFFFF"
   stroke-width="3"
   stroke-miterlimit="10"
   points="554.2,191.9 559.6,197.3 570.2,186.7 "
   id="polyline676" />
<g
   id="g688">
	<g
   id="g682">
		<path
   fill="#AFAFAF"
   d="M130.5,190.4h-0.9v-4.3c0-2.1-1.5-3.9-3.5-4.2c0,0,0,0,0-0.1c0-0.4-0.3-0.8-0.8-0.8s-0.8,0.3-0.8,0.8    c0,0,0,0,0,0.1c-2,0.4-3.5,2.1-3.5,4.2v4.3h-0.9c-0.2,0-0.3,0.1-0.3,0.3v1.5c0,0.2,0.1,0.3,0.3,0.3h10.4c0.2,0,0.3-0.1,0.3-0.3    v-1.5C130.8,190.5,130.7,190.4,130.5,190.4L130.5,190.4z"
   id="path678" />
		<path
   fill="#AFAFAF"
   d="M125.3,195.3c0.9,0,1.7-0.8,1.7-1.9h-3.3C123.6,194.5,124.3,195.3,125.3,195.3L125.3,195.3z"
   id="path680" />
	</g>
	<line
   fill="none"
   stroke="#AFAFAF"
   stroke-width="2"
   stroke-miterlimit="10"
   x1="119.1"
   y1="195.6"
   x2="132.7"
   y2="182"
   id="line684" />
	<line
   fill="none"
   stroke="#FFFFFF"
   stroke-miterlimit="10"
   x1="118.2"
   y1="195"
   x2="132.8"
   y2="180.4"
   id="line686" />
</g>
<g
   id="g694">
	<path
   fill="#AFAFAF"
   d="M152.2,190.2h-0.9v-4.3c0-2.1-1.5-3.9-3.5-4.2c0,0,0,0,0-0.1c0-0.4-0.3-0.8-0.8-0.8c-0.4,0-0.8,0.3-0.8,0.8   c0,0,0,0,0,0.1c-2,0.4-3.5,2.1-3.5,4.2v4.3h-0.9c-0.2,0-0.3,0.1-0.3,0.3v1.5c0,0.2,0.1,0.3,0.3,0.3h10.4c0.2,0,0.3-0.1,0.3-0.3   v-1.5C152.5,190.3,152.4,190.2,152.2,190.2L152.2,190.2z"
   id="path690" />
	<path
   fill="#AFAFAF"
   d="M147,195.2c0.9,0,1.7-0.8,1.7-1.9h-3.3C145.3,194.3,146,195.2,147,195.2L147,195.2z"
   id="path692" />
</g>
<g
   id="g698">
	<path
   fill="#AFAFAF"
   d="M125.5,210.8c-4.4,0-8,3.6-8,8s3.6,8,8,8c4.4,0,8-3.6,8-8C133.5,214.4,129.9,210.8,125.5,210.8L125.5,210.8   z M125.5,225.5c-3.7,0-6.7-3-6.7-6.7s3-6.7,6.7-6.7s6.7,3,6.7,6.7S129.2,225.5,125.5,225.5L125.5,225.5z M129.6,216.8   c0.1,0.2,0.1,0.5-0.1,0.6l-3.9,2.7c-0.1,0.1-0.2,0.1-0.2,0.1c-0.1,0-0.1,0-0.2,0c-0.1-0.1-0.2-0.2-0.2-0.4V214   c0-0.2,0.2-0.4,0.4-0.4c0.2,0,0.4,0.2,0.4,0.4v4.9l3.2-2.2C129.2,216.6,129.5,216.6,129.6,216.8L129.6,216.8z"
   id="path696" />
</g>
<g
   id="g704">
	<polyline
   fill="none"
   stroke="#969596"
   stroke-miterlimit="10"
   points="147.3,219.1 145,216.6 147.3,214.1  "
   id="polyline700" />
	<path
   fill="none"
   stroke="#969596"
   stroke-miterlimit="10"
   d="M144.9,216.6H156c1.9,0,3.5,1.6,3.5,3.5l0,0c0,1.9-1.6,3.5-3.5,3.5   h-11.1"
   id="path702" />
</g>
<g
   id="g718">
	<polyline
   fill="none"
   stroke="#969596"
   stroke-miterlimit="10"
   points="132.4,243.8 134.6,246.1 132.4,248.4  "
   id="polyline706" />
	<polyline
   fill="none"
   stroke="#969596"
   stroke-miterlimit="10"
   points="132.4,237.4 134.6,239.6 132.4,241.9  "
   id="polyline708" />
	<g
   id="g712">
		<path
   fill="none"
   stroke="#969596"
   stroke-miterlimit="10"
   d="M118,246.2h4.4c0.8,0,1.6-0.4,2.1-1.1l3.1-4.2    c0.5-0.7,1.3-1.1,2.1-1.1h4.8"
   id="path710" />
	</g>
	<g
   id="g716">
		<path
   fill="none"
   stroke="#969596"
   stroke-miterlimit="10"
   d="M118,239.8h4.4c0.8,0,1.6,0.4,2.1,1.1l3.1,4.2    c0.5,0.7,1.3,1.1,2.1,1.1h4.8"
   id="path714" />
	</g>
</g>
<polyline
   fill="none"
   stroke="#4764AC"
   stroke-width="2"
   stroke-miterlimit="10"
   points="474.2,127.9 478.3,131.9 486.3,123.9 "
   id="polyline720"
   style="stroke:#232b38;stroke-opacity:1" />
<line
   style="fill:none;stroke:#e81935;stroke-width:2;stroke-miterlimit:10;stroke-opacity:1"
   id="line722"
   y2="150"
   x2="483"
   y1="142"
   x1="475"
   stroke-miterlimit="10" /><line
   style="fill:none;stroke:#e81935;stroke-width:2;stroke-miterlimit:10;stroke-opacity:1"
   id="line724"
   y2="150"
   x2="475"
   y1="142"
   x1="483"
   stroke-miterlimit="10" />
<g
   id="g2536"><polygon
     points="566.3,219.1 555.1,219.1 554,210.7 569,210.7 "
     id="polygon728"
     style="fill:#232b38;fill-opacity:1" /><polygon
     style="fill:#232b38;fill-opacity:1"
     id="polygon730"
     points="554.2,208.9 556.5,211.1 555,212.5 553.4,210.9 550.8,210.9 550.8,208.9 " /><circle
     cx="556.40002"
     cy="223"
     r="1.4"
     id="circle734"
     style="fill:#232b38;fill-opacity:1" /><circle
     cx="563.40002"
     cy="223"
     r="1.4"
     id="circle736"
     style="fill:#232b38;fill-opacity:1" /></g>
<g
   id="g752">
	<g
   id="g742">
		<path
   fill="#C9C8C8"
   d="M40.8,201.2c0-1-0.8-1.8-1.8-1.8H22.1c-1,0-1.8,0.8-1.8,1.8v9.8c0,1,0.8,1.8,1.8,1.8H39    c1,0,1.8-0.8,1.8-1.8V201.2z"
   id="path740" />
	</g>
	<g
   id="g748">
		<path
   fill="#FFFFFF"
   d="M37,203.8c0-1-0.8-1.8-1.8-1.8H18.4c-1,0-1.8,0.8-1.8,1.8v9.8c0,1,0.8,1.8,1.8,1.8h16.9    c1,0,1.8-0.8,1.8-1.8L37,203.8L37,203.8z"
   id="path744" />
		<path
   fill="none"
   stroke="#C9C8C8"
   stroke-width="0.8889"
   stroke-miterlimit="10"
   d="M37,203.8c0-1-0.8-1.8-1.8-1.8H18.4    c-1,0-1.8,0.8-1.8,1.8v9.8c0,1,0.8,1.8,1.8,1.8h16.9c1,0,1.8-0.8,1.8-1.8L37,203.8L37,203.8z"
   id="path746" />
	</g>
	<line
   fill="none"
   stroke="#C9C8C8"
   stroke-width="2"
   stroke-miterlimit="10"
   x1="16.6"
   y1="206.9"
   x2="37"
   y2="206.9"
   id="line750" />
</g>
<path
   fill="#C9C8C8"
   d="M85.4,203.3c-1.1-0.9-5-3.3-6.7-3.8c-1.4-0.4-5.1,1.4-7.4,2.2c-1.2-0.2-2.4-0.5-4.1-1v7.3  c1.3,0,2.6,0.9,4.6,2.1c2,1.2,3.2,1.2,5.1,1.2c0.8,0,1.6-0.1,2.5,0c0.8,2.3,3.1,3.9,5.6,3.9c3.3,0,6-2.7,6-6  C91,206.1,88.6,203.5,85.4,203.3z M79.2,207.6c-1.5-0.5-2.2-1.7-2-2c0.9-1,2.5-1,3.7-0.7C80.1,205.6,79.5,206.5,79.2,207.6z   M85,213.4c-1.4,0-2.6-0.7-3.3-1.7c1.4,0.2,3-0.5,2.5-2.1c-0.3-1-1.7-1.6-3.1-1.7c0.6-1.7,2.1-2.9,4-2.9c2.3,0,4.2,1.9,4.2,4.2  C89.2,211.6,87.3,213.4,85,213.4z"
   id="path754" />
<g
   id="g768">
	<polygon
   fill="#03A2D5"
   points="16.7,250.9 40.7,250.9 40.7,232.9 16.7,232.9  "
   id="polygon756" />
	<polygon
   fill="#E11124"
   points="16.7,244.9 40.7,244.9 40.7,238.9 16.7,238.9  "
   id="polygon758" />
	<polygon
   fill="#4BAB53"
   points="16.7,250.9 40.7,250.9 40.7,244.9 16.7,244.9  "
   id="polygon760" />
	<path
   fill="#FFFFFF"
   d="M30,241.9c0-1.4-1.1-2.5-2.5-2.5s-2.5,1.1-2.5,2.5s1.1,2.5,2.5,2.5S30,243.3,30,241.9L30,241.9z"
   id="path762" />
	<path
   fill="#E11124"
   d="M30.3,241.9c0-1.2-0.9-2.1-2.1-2.1s-2.1,0.9-2.1,2.1c0,1.2,0.9,2.1,2.1,2.1C29.3,244,30.3,243.1,30.3,241.9   L30.3,241.9z"
   id="path764" />
	<polygon
   fill="#FFFFFF"
   points="31,242.9 30.3,242.5 30,243.2 29.8,242.5 29.1,242.9 29.4,242.2 28.7,241.9 29.4,241.6 29.1,240.9    29.8,241.3 30.1,240.5 30.3,241.3 31,240.9 30.7,241.6 31.4,241.9 30.7,242.2  "
   id="polygon766" />
</g>
<g
   opacity="0.5"
   id="g776">
	<path
   fill="#4764AC"
   d="M88.2,236.5l-0.3,0.1l-1.7,0.1l-0.5,0.8l-0.3-0.1l-1.3-1.2l-0.2-0.6l-0.3-0.7l-0.8-0.8l-1-0.2v0.5l1,0.9   l0.5,0.6l-0.5,0.3l-0.4-0.1l-0.6-0.3v-0.5l-0.9-0.3l-0.3,1.2l-0.9,0.2l0.1,0.7l1.1,0.2l0.2-1.1l0.9,0.1l0.4,0.3H83l0.5,0.9l1.2,1.3   l-0.1,0.5l-1-0.1l-1.7,0.9l-1.3,1.5l-0.2,0.7H80l-0.8-0.4l-0.8,0.4l0.2,0.9l0.4-0.4h0.6v0.8l0.5,0.2l0.5,0.6l0.8-0.2l1,0.2l1.1,0.3   l0.6,0.1l0.9,1.1l1.8,1.1l-1.2,2.3l-1.2,0.6l-0.5,1.3l-1.8,1.2l-0.2,0.7c4.6-1.1,8-5.2,8-10.2C89.9,240.2,89.3,238.2,88.2,236.5   L88.2,236.5z"
   id="path770" />
	<path
   fill="#4764AC"
   d="M80.7,247.8l-0.8-1.4l0.7-1.5l-0.7-0.2l-0.8-0.8l-1.7-0.4l-0.6-1.2v0.7h-0.3l-1.5-2v-1.7l-1.1-1.8l-1.8,0.3   H71l-0.6-0.4l0.8-0.6l-0.8,0.2c-0.9,1.6-1.4,3.4-1.4,5.3c0,5.8,4.7,10.5,10.5,10.5c0.4,0,0.9,0,1.3-0.1l-0.1-1.3c0,0,0.5-1.9,0.5-2   C81.1,249.5,80.7,247.8,80.7,247.8L80.7,247.8z"
   id="path772" />
	<path
   fill="#4764AC"
   d="M72.9,235.2l1.9-0.3l0.9-0.5l1,0.3l1.5-0.1l0.5-0.8l0.8,0.1l1.9-0.2l0.5-0.6l0.7-0.5l1,0.2l0.4-0.1   c-1.4-0.6-2.9-1-4.5-1c-3.3,0-6.2,1.5-8.1,3.8l0,0L72.9,235.2z M79.9,232.9l1.1-0.6l0.7,0.4l-1,0.8l-1,0.1l-0.4-0.3L79.9,232.9z    M76.7,233l0.5,0.2l0.6-0.2l0.3,0.6l-1.4,0.4l-0.7-0.4C76,233.5,76.7,233.1,76.7,233L76.7,233z"
   id="path774" />
</g>
<g
   id="g780">
	<path
   fill="#FFFFFF"
   d="M254.7,136.1v2.7h-1.9v3.2h1.9v9.6h4V142h2.7c0,0,0.3-1.6,0.4-3.3h-3v-2.2c0-0.3,0.4-0.8,0.9-0.8h2.2v-3.4   h-3C254.6,132.4,254.7,135.6,254.7,136.1L254.7,136.1z"
   id="path778" />
</g>
<g
   id="g784">
	<path
   fill="#FFFFFF"
   d="M276,136.7c0,1.8,0.6,3.1,1.8,3.9c1,0.6,2.1,0.7,2.7,0.7c0.1,0,0.3,0,0.3,0s-0.2,1.2,0.7,2.4l0,0   c-1.6,0-6.6,0.3-6.6,4.5s4.7,4.5,5.6,4.5c0.1,0,0.1,0,0.1,0s0.1,0,0.2,0c0.6,0,2.1-0.1,3.6-0.8c1.9-0.9,2.8-2.5,2.8-4.7   c0-2.1-1.4-3.4-2.5-4.3c-0.6-0.6-1.2-1.1-1.2-1.5c0-0.5,0.4-0.8,0.9-1.3c0.8-0.7,1.6-1.8,1.6-3.8c0-1.8-0.2-2.9-1.6-3.7   c0.1-0.1,0.7-0.1,0.9-0.2c0.8-0.1,1.9-0.2,1.9-0.8v-0.1h-5.5C281.5,131.4,276,131.6,276,136.7L276,136.7z M284.9,147.6   c0.1,1.7-1.3,2.9-3.5,3.1c-2.2,0.2-4-0.8-4.1-2.5c-0.1-0.8,0.3-1.6,1-2.2c0.7-0.6,1.7-1,2.7-1.1c0.1,0,0.2,0,0.4,0   C283.4,144.7,284.8,146,284.9,147.6L284.9,147.6z M283.5,135.5c0.5,1.9-0.3,3.9-1.6,4.3c-0.1,0-0.3,0.1-0.5,0.1   c-1.2,0-2.4-1.2-2.8-2.9c-0.2-0.9-0.2-1.8,0.1-2.5c0.3-0.8,0.8-1.3,1.4-1.5c0.2,0,0.3-0.1,0.5-0.1   C281.9,132.9,282.9,133.5,283.5,135.5L283.5,135.5z"
   id="path782" />
</g>
<path
   fill="#E6285D"
   d="M490.3,116.4l4.3-0.1l3.7-6.5h1.9l-2.2,6.4l3.7,0.1l0.9-1.4l1.4-0.1l-0.8,2.5l0.8,2.5l-1.4-0.1l-0.9-1.4  l-3.7,0.1l2.2,6.4h-1.9l-3.7-6.5l-4.3-0.1c0,0-1.3-0.4-1.3-1C489,116.8,490.3,116.4,490.3,116.4z"
   id="path786"
   style="fill:#e81935;fill-opacity:1" />
<path
   fill="#FFFFFF"
   d="M504.3,207.1l4.3-0.1l3.7-6.5h1.9l-2.2,6.4l3.7,0.1l0.9-1.4l1.4-0.1l-0.8,2.5l0.8,2.5l-1.4-0.1l-0.9-1.4  l-3.7,0.1l2.2,6.4h-1.9l-3.7-6.5l-4.3-0.1c0,0-1.3-0.4-1.3-1C503,207.5,504.3,207.1,504.3,207.1z"
   id="path788" />
<polyline
   style="fill:none;stroke:#254659;stroke-miterlimit:10;stroke-opacity:1"
   id="polyline790"
   points="330.8,126.8 326.3,122.3 330.8,117.8  "
   stroke-miterlimit="10" /><g
   id="g2518"><line
     stroke-miterlimit="10"
     x1="336.5"
     y1="122.3"
     x2="326.29999"
     y2="122.3"
     id="line792"
     style="fill:none;stroke:#232b38;stroke-miterlimit:10;stroke-opacity:1" /></g>
<g
   id="g2526"><polyline
     style="fill:none;stroke:#232b38;stroke-miterlimit:10;stroke-opacity:1"
     id="polyline796"
     points="355.8,121.7 360.3,117.2 364.8,121.7   "
     stroke-miterlimit="10" /><line
     style="fill:none;stroke:#232b38;stroke-miterlimit:10;stroke-opacity:1"
     id="line798"
     y2="117.2"
     x2="360.29999"
     y1="127.4"
     x1="360.29999"
     stroke-miterlimit="10" /><circle
     stroke-miterlimit="10"
     cx="360.29999"
     cy="122.3"
     r="10"
     id="circle802"
     style="fill:none;stroke:#232b38;stroke-miterlimit:10;stroke-opacity:1" /></g>
<g
   id="g814">
	<g
   id="g810">
		<polyline
   fill="none"
   stroke="#CBCBCB"
   stroke-miterlimit="10"
   points="355.8,151.7 360.3,147.2 364.8,151.7   "
   id="polyline806" />
		<line
   fill="none"
   stroke="#CBCBCB"
   stroke-miterlimit="10"
   x1="360.3"
   y1="157.4"
   x2="360.3"
   y2="147.2"
   id="line808" />
	</g>
	<circle
   fill="none"
   stroke="#CBCBCB"
   stroke-miterlimit="10"
   cx="360.3"
   cy="152.3"
   r="10"
   id="circle812" />
</g>
<g
   id="g2496"><path
     d="m 27.6,275.6 c -0.1,-0.2 -0.2,-0.5 -0.3,-0.7 -1.1,-2.6 -3.5,-3.5 -5.4,-3.5 -2.6,0 -5.4,1.7 -5.8,5.3 v 0.7 c 0,0 0,0.3 0,0.4 0.2,1.7 1.5,3.5 2.5,5.2 1.1,1.8 2.2,3.6 3.3,5.4 0.7,-1.2 1.4,-2.3 2,-3.5 0.2,-0.3 0.4,-0.7 0.6,-1 0.1,-0.2 0.4,-0.4 0.5,-0.6 1.1,-2 2.8,-3.9 2.8,-5.9 v -0.8 c 0.1,-0.2 -0.1,-0.9 -0.2,-1 z m -5.6,3.7 c -0.8,0 -1.6,-0.4 -2,-1.4 -0.1,-0.2 -0.1,-0.5 -0.1,-0.5 v -0.5 c 0,-1.3 1.1,-1.9 2.1,-1.9 1.2,0 2.1,1 2.1,2.2 0.1,1.1 -0.9,2.1 -2.1,2.1 z"
     id="path816"
     inkscape:connector-curvature="0"
     style="fill:#e81935;fill-opacity:1" /></g>
<g
   id="g2502"><path
     d="m 48.7,271.9 c -4.4,0 -8,3.6 -8,8 0,4.4 3.6,8 8,8 4.4,0 8,-3.6 8,-8 0,-4.4 -3.5,-8 -8,-8 z m 0,14.3 c -3.5,0 -6.3,-2.8 -6.3,-6.3 0,-3.5 2.8,-6.3 6.3,-6.3 3.5,0 6.3,2.8 6.3,6.3 0.1,3.5 -2.8,6.3 -6.3,6.3 z"
     id="path820"
     inkscape:connector-curvature="0"
     style="fill:#e81935;fill-opacity:1" /><path
     d="m 53,279.6 h -3.1 c -0.1,-0.2 -0.3,-0.3 -0.5,-0.5 v -3.7 c 0,-0.4 -0.3,-0.7 -0.7,-0.7 -0.4,0 -0.7,0.3 -0.7,0.7 v 3.7 c -0.4,0.2 -0.7,0.7 -0.7,1.2 0,0.8 0.6,1.4 1.4,1.4 0.5,0 0.9,-0.3 1.2,-0.7 H 53 c 0.4,0 0.7,-0.3 0.7,-0.7 0.1,-0.3 -0.3,-0.7 -0.7,-0.7 z"
     id="path822"
     inkscape:connector-curvature="0"
     style="fill:#e81935;fill-opacity:1" /></g>
<g
   id="g2506"><path
     style="fill:#e81935;fill-opacity:1"
     id="path826"
     d="m 83.3,283.3 -2.2,-2.2 c -0.4,-0.4 -1.1,-0.4 -1.6,0 l -1.1,1.1 c -0.1,0 -0.1,-0.1 -0.2,-0.1 -0.7,-0.4 -1.6,-0.9 -2.6,-1.9 -1,-1 -1.5,-1.9 -1.9,-2.6 0,-0.1 -0.1,-0.1 -0.1,-0.2 l 0.7,-0.7 0.4,-0.4 c 0.4,-0.4 0.5,-1.2 0,-1.6 l -2.2,-2.2 c -0.4,-0.4 -1.1,-0.4 -1.6,0 l -0.6,0.6 v 0 c -0.2,0.3 -0.4,0.6 -0.5,0.9 -0.1,0.3 -0.2,0.6 -0.2,0.9 -0.3,2.4 0.8,4.5 3.7,7.5 4.1,4.1 7.3,3.8 7.5,3.7 0.3,0 0.6,-0.1 0.9,-0.2 0.3,-0.1 0.6,-0.3 0.9,-0.5 v 0 l 0.6,-0.6 c 0.5,-0.3 0.5,-1 0.1,-1.5 z"
     inkscape:connector-curvature="0" /></g>
<path
   opacity="0.5"
   fill="#FFFFFF"
   enable-background="new    "
   d="M54.7,305.3H16.8c-0.3,0-0.6,0.3-0.6,0.6v14.9  c0,0.3,0.3,0.6,0.6,0.6h37.9c0.3,0,0.6-0.3,0.6-0.6v-14.9C55.3,305.6,55,305.3,54.7,305.3L54.7,305.3z M18.2,308.6h11.1v1.4H18.2  V308.6z M33.8,317.5H18.2v-1.4h15.6C33.8,316.1,33.8,317.5,33.8,317.5z M33.8,313.6H18.2v-1.4h15.6  C33.8,312.2,33.8,313.6,33.8,313.6z M44.4,318.1l1-4.1l-3.1-0.1c-0.1,0-0.2,0-0.2,0L42,314l-0.5,0.6l-1,0.1l0,0l0.3-1  c0-0.1,0.1-0.1,0.2-0.1c-0.1,0-0.1-0.1-0.3-0.1c0,0-0.5-0.2-0.5-0.4l0,0c0-0.2,0.5-0.4,0.5-0.4c0.2-0.1,0.3-0.1,0.3-0.1  c-0.1,0-0.1,0-0.2-0.1l-0.3-1l0,0l1,0.1l0.5,0.6l0.1,0.1h0.2l3.1-0.1l-1-4.1c0-0.1,0-0.2,0.2-0.2l1,0.1c0.1,0,0.2,0.1,0.3,0.2l1.7,4  l3.1,0.1c0.6,0,1.2,0.2,1.3,0.5c0.1,0.1,0.1,0.2,0.1,0.3l0,0c0,0.1,0,0.2-0.1,0.3c-0.2,0.3-0.7,0.5-1.3,0.5l-3.1,0.1l-1.7,4  c0,0.1-0.2,0.2-0.3,0.2l-1,0.1C44.5,318.3,44.4,318.2,44.4,318.1L44.4,318.1z"
   id="path828" />
<g
   id="g834">
	<path
   fill="#B3B3B2"
   d="M122.9,262.5c1.4-1.4,3.6-1.6,5.3-0.6c-0.6,0.6-1.2,1.2-1.2,1.2c-0.5,0.5,0.1,0.9,0.3,0.8h3   c0.2,0,0.3,0,0.3,0h0.9c0.2,0,0.3-0.1,0.3-0.3v-4.2c0-0.4-0.4-0.7-0.8-0.3c0,0-0.7,0.7-1.2,1.2c-2.5-1.8-6.1-1.6-8.4,0.6   c-1.3,1.3-2,3.1-1.9,4.8h2.2C121.6,264.7,122,263.5,122.9,262.5L122.9,262.5z"
   id="path830" />
	<path
   fill="#B3B3B2"
   d="M130.1,265.1c0.1,1.2-0.3,2.4-1.2,3.3c-1.4,1.4-3.6,1.6-5.3,0.6c0.6-0.6,1.2-1.2,1.2-1.2   c0.5-0.5-0.1-0.9-0.3-0.8h-3c-0.2,0-0.3,0-0.3,0h-0.9c-0.2,0-0.3,0.1-0.3,0.3v4.2c0,0.4,0.4,0.7,0.8,0.3c0,0,0.7-0.7,1.2-1.2   c2.5,1.8,6.1,1.6,8.4-0.6c1.3-1.3,2-3.1,1.9-4.8L130.1,265.1L130.1,265.1z"
   id="path832" />
</g>
<g
   id="g838">
	<path
   fill="#666666"
   d="M145.6,258.3h8.5v2.1h-8.5V258.3z M157.3,261.5h-14.9c-0.6,0-1.1,0.5-1.1,1.1v5.3c0,0.6,0.5,1.1,1.1,1.1   h3.2v4.2h8.5V269h3.2c0.6,0,1.1-0.5,1.1-1.1v-5.3C158.4,261.9,157.9,261.5,157.3,261.5L157.3,261.5z M153.1,272.1h-6.4v-5.3h6.4   V272.1z M157.6,263c0,0.4-0.3,0.8-0.8,0.8c-0.4,0-0.8-0.3-0.8-0.8s0.3-0.8,0.8-0.8C157.2,262.3,157.6,262.6,157.6,263L157.6,263z"
   id="path836" />
</g>
<g
   id="g842">
	<path
   fill="#666666"
   d="M178.9,263.8h-3.1v-4.6h-4.6v4.6h-3.1l5.4,5.3L178.9,263.8z M168.1,270.7v1.5h10.7v-1.5H168.1z"
   id="path840" />
</g>
<g
   id="g848">
	<path
   fill="#666666"
   d="M205.2,260.8v-0.6h-15v0.6l7.5,3.9L205.2,260.8z"
   id="path844" />
	<path
   fill="#666666"
   d="M197.7,266.1l-7.5-3.9v9.1h15v-9.1L197.7,266.1z"
   id="path846" />
</g>
<g
   id="g1325"><path
     d="m 486.9,168 h -11.8 c -0.5,0 -0.9,0.4 -0.9,0.9 v 13.4 c 0,0.5 0.4,0.9 0.9,0.9 h 4.7 v -4.9 c 0,-0.1 0.1,-0.3 0.3,-0.3 h 1.9 c 0.1,0 0.3,0.1 0.3,0.3 v 4.9 h 4.7 c 0.5,0 0.9,-0.4 0.9,-0.9 v -13.4 c -0.1,-0.5 -0.5,-0.9 -1,-0.9 m -8.2,12.3 c 0,0.1 -0.1,0.3 -0.3,0.3 h -1.9 c -0.1,0 -0.3,-0.1 -0.3,-0.3 v -1.9 c 0,-0.2 0.1,-0.3 0.3,-0.3 h 1.9 c 0.1,0 0.3,0.1 0.3,0.3 z m 0,-3.4 c 0,0.1 -0.1,0.3 -0.3,0.3 h -1.9 c -0.1,0 -0.3,-0.1 -0.3,-0.3 V 175 c 0,-0.2 0.1,-0.3 0.3,-0.3 h 1.9 c 0.1,0 0.3,0.1 0.3,0.3 z m 0,-3.3 c 0,0.1 -0.1,0.3 -0.3,0.3 h -1.9 c -0.1,0 -0.3,-0.1 -0.3,-0.3 v -1.9 c 0,-0.1 0.1,-0.3 0.3,-0.3 h 1.9 c 0.1,0 0.3,0.1 0.3,0.3 z m 3.5,3.3 c 0,0.1 -0.1,0.3 -0.3,0.3 H 480 c -0.1,0 -0.3,-0.1 -0.3,-0.3 V 175 c 0,-0.2 0.1,-0.3 0.3,-0.3 h 1.9 c 0.1,0 0.3,0.1 0.3,0.3 z m 0,-3.3 c 0,0.1 -0.1,0.3 -0.3,0.3 H 480 c -0.1,0 -0.3,-0.1 -0.3,-0.3 v -1.9 c 0,-0.1 0.1,-0.3 0.3,-0.3 h 1.9 c 0.1,0 0.3,0.1 0.3,0.3 z m 3.5,6.7 c 0,0.1 -0.1,0.3 -0.3,0.3 h -1.9 c -0.1,0 -0.3,-0.1 -0.3,-0.3 v -1.9 c 0,-0.2 0.1,-0.3 0.3,-0.3 h 1.9 c 0.2,0 0.3,0.1 0.3,0.3 z m 0,-3.4 c 0,0.1 -0.1,0.3 -0.3,0.3 h -1.9 c -0.1,0 -0.3,-0.1 -0.3,-0.3 V 175 c 0,-0.2 0.1,-0.3 0.3,-0.3 h 1.9 c 0.2,0 0.3,0.1 0.3,0.3 z m 0,-3.3 c 0,0.1 -0.1,0.3 -0.3,0.3 h -1.9 c -0.1,0 -0.3,-0.1 -0.3,-0.3 v -1.9 c 0,-0.1 0.1,-0.3 0.3,-0.3 h 1.9 c 0.2,0 0.3,0.1 0.3,0.3 z m -8.8,-6.7 0.7,0.5 c 0.1,0 0.2,0 0.2,0 0.1,0 0.1,-0.1 0.1,-0.2 l -0.3,-0.8 c 0,-0.1 0,-0.2 0.1,-0.2 l 0.7,-0.5 c 0.1,-0.1 0.1,-0.1 0.1,-0.2 0,-0.1 -0.1,-0.1 -0.2,-0.1 h -0.9 c -0.1,0 -0.2,-0.1 -0.2,-0.1 l -0.3,-0.8 c 0,-0.1 -0.1,-0.1 -0.2,-0.1 -0.1,0 -0.2,0.1 -0.2,0.1 l -0.3,0.8 c 0,0.1 -0.1,0.1 -0.2,0.1 h -0.9 c -0.1,0 -0.2,0.1 -0.2,0.1 0,0.1 0,0.2 0.1,0.2 l 0.7,0.5 c 0.1,0.1 0.1,0.1 0.1,0.2 l -0.3,0.8 c 0,0.1 0,0.2 0.1,0.2 0.1,0.1 0.2,0.1 0.2,0 l 0.7,-0.5 c 0.3,-0.1 0.4,-0.1 0.4,0 m 4.3,0 0.7,0.5 c 0.1,0 0.2,0 0.2,0 0.1,0 0.1,-0.1 0.1,-0.2 l -0.3,-0.8 c 0,-0.1 0,-0.2 0.1,-0.2 l 0.7,-0.5 c 0.1,-0.1 0.1,-0.1 0.1,-0.2 0,-0.1 -0.1,-0.1 -0.2,-0.1 h -0.9 c -0.1,0 -0.2,-0.1 -0.2,-0.1 l -0.3,-0.8 c 0,-0.1 -0.1,-0.1 -0.2,-0.1 -0.1,0 -0.2,0.1 -0.2,0.1 l -0.3,0.8 c 0,0.1 -0.1,0.1 -0.2,0.1 h -0.9 c -0.1,0 -0.2,0.1 -0.2,0.1 0,0.1 0,0.2 0.1,0.2 l 0.7,0.5 c 0.1,0.1 0.1,0.1 0.1,0.2 l -0.3,0.8 c 0,0.1 0,0.2 0.1,0.2 0.1,0.1 0.2,0.1 0.2,0 l 0.7,-0.5 c 0.2,-0.1 0.3,-0.1 0.4,0 m 4.1,0 0.7,0.5 c 0.1,0 0.2,0 0.2,0 0.1,0 0.1,-0.1 0.1,-0.2 l -0.3,-0.8 c 0,-0.1 0,-0.2 0.1,-0.2 l 0.7,-0.5 c 0.1,-0.1 0.1,-0.1 0.1,-0.2 0,-0.1 -0.1,-0.1 -0.2,-0.1 h -0.9 c -0.1,0 -0.2,-0.1 -0.2,-0.1 l -0.3,-0.8 c 0,-0.1 -0.1,-0.1 -0.2,-0.1 -0.1,0 -0.2,0.1 -0.2,0.1 l -0.3,0.8 c 0,0.1 -0.1,0.1 -0.2,0.1 h -0.9 c -0.1,0 -0.2,0.1 -0.2,0.1 0,0.1 0,0.2 0.1,0.2 l 0.7,0.5 c 0.1,0 0.1,0.1 0.1,0.2 l -0.3,0.8 c 0,0.1 0,0.2 0.1,0.2 0.1,0.1 0.2,0.1 0.2,0 l 0.7,-0.5 c 0.3,-0.1 0.4,-0.1 0.4,0"
     id="path850"
     inkscape:connector-curvature="0"
     style="fill:#254659;fill-opacity:1" /></g>
<g
   id="g856">
	<path
   fill="#FFFFFF"
   d="M487,203.1h-11.8c-0.5,0-0.9,0.4-0.9,0.9v13.4c0,0.5,0.4,0.9,0.9,0.9h4.7v-4.9c0-0.1,0.1-0.3,0.3-0.3h1.9   c0.1,0,0.3,0.1,0.3,0.3v4.9h4.7c0.5,0,0.9-0.4,0.9-0.9V204C487.9,203.5,487.5,203.1,487,203.1 M478.8,215.4c0,0.1-0.1,0.3-0.3,0.3   h-1.9c-0.1,0-0.3-0.1-0.3-0.3v-1.9c0-0.2,0.1-0.3,0.3-0.3h1.9c0.1,0,0.3,0.1,0.3,0.3V215.4z M478.8,212c0,0.1-0.1,0.3-0.3,0.3h-1.9   c-0.1,0-0.3-0.1-0.3-0.3v-1.9c0-0.2,0.1-0.3,0.3-0.3h1.9c0.1,0,0.3,0.1,0.3,0.3V212z M478.8,208.7c0,0.1-0.1,0.3-0.3,0.3h-1.9   c-0.1,0-0.3-0.1-0.3-0.3v-1.9c0-0.1,0.1-0.3,0.3-0.3h1.9c0.1,0,0.3,0.1,0.3,0.3V208.7z M482.3,212c0,0.1-0.1,0.3-0.3,0.3h-1.9   c-0.1,0-0.3-0.1-0.3-0.3v-1.9c0-0.2,0.1-0.3,0.3-0.3h1.9c0.1,0,0.3,0.1,0.3,0.3L482.3,212L482.3,212z M482.3,208.7   c0,0.1-0.1,0.3-0.3,0.3h-1.9c-0.1,0-0.3-0.1-0.3-0.3v-1.9c0-0.1,0.1-0.3,0.3-0.3h1.9c0.1,0,0.3,0.1,0.3,0.3L482.3,208.7   L482.3,208.7z M485.8,215.4c0,0.1-0.1,0.3-0.3,0.3h-1.9c-0.1,0-0.3-0.1-0.3-0.3v-1.9c0-0.2,0.1-0.3,0.3-0.3h1.9   c0.2,0,0.3,0.1,0.3,0.3V215.4z M485.8,212c0,0.1-0.1,0.3-0.3,0.3h-1.9c-0.1,0-0.3-0.1-0.3-0.3v-1.9c0-0.2,0.1-0.3,0.3-0.3h1.9   c0.2,0,0.3,0.1,0.3,0.3V212z M485.8,208.7c0,0.1-0.1,0.3-0.3,0.3h-1.9c-0.1,0-0.3-0.1-0.3-0.3v-1.9c0-0.1,0.1-0.3,0.3-0.3h1.9   c0.2,0,0.3,0.1,0.3,0.3V208.7z M477,202l0.7,0.5c0.1,0,0.2,0,0.2,0c0.1,0,0.1-0.1,0.1-0.2l-0.3-0.8c0-0.1,0-0.2,0.1-0.2l0.7-0.5   c0.1-0.1,0.1-0.1,0.1-0.2s-0.1-0.1-0.2-0.1h-0.9c-0.1,0-0.2-0.1-0.2-0.1l-0.3-0.8c0-0.1-0.1-0.1-0.2-0.1s-0.2,0.1-0.2,0.1l-0.3,0.8   c0,0.1-0.1,0.1-0.2,0.1h-0.9c-0.1,0-0.2,0.1-0.2,0.1c0,0.1,0,0.2,0.1,0.2l0.7,0.5c0.1,0.1,0.1,0.1,0.1,0.2l-0.3,0.8   c0,0.1,0,0.2,0.1,0.2c0.1,0.1,0.2,0.1,0.2,0l0.7-0.5C476.9,201.9,477,201.9,477,202 M481.3,202l0.7,0.5c0.1,0,0.2,0,0.2,0   c0.1,0,0.1-0.1,0.1-0.2l-0.3-0.8c0-0.1,0-0.2,0.1-0.2l0.7-0.5c0.1-0.1,0.1-0.1,0.1-0.2s-0.1-0.1-0.2-0.1h-0.9   c-0.1,0-0.2-0.1-0.2-0.1l-0.3-0.8c0-0.1-0.1-0.1-0.2-0.1s-0.2,0.1-0.2,0.1l-0.3,0.8c0,0.1-0.1,0.1-0.2,0.1h-0.9   c-0.1,0-0.2,0.1-0.2,0.1c0,0.1,0,0.2,0.1,0.2l0.7,0.5c0.1,0.1,0.1,0.1,0.1,0.2l-0.3,0.8c0,0.1,0,0.2,0.1,0.2c0.1,0.1,0.2,0.1,0.2,0   l0.7-0.5C481.1,201.9,481.2,201.9,481.3,202 M485.4,202l0.7,0.5c0.1,0,0.2,0,0.2,0c0.1,0,0.1-0.1,0.1-0.2l-0.3-0.8   c0-0.1,0-0.2,0.1-0.2l0.7-0.5c0.1-0.1,0.1-0.1,0.1-0.2s-0.1-0.1-0.2-0.1h-0.9c-0.1,0-0.2-0.1-0.2-0.1l-0.3-0.8   c0-0.1-0.1-0.1-0.2-0.1s-0.2,0.1-0.2,0.1l-0.3,0.8c0,0.1-0.1,0.1-0.2,0.1h-0.9c-0.1,0-0.2,0.1-0.2,0.1c0,0.1,0,0.2,0.1,0.2l0.7,0.5   c0.1,0,0.1,0.1,0.1,0.2l-0.3,0.8c0,0.1,0,0.2,0.1,0.2c0.1,0.1,0.2,0.1,0.2,0l0.7-0.5C485.3,201.9,485.4,201.9,485.4,202"
   id="path854" />
</g>
</svg>