<?xml version="1.0"?>
<svg xmlns="http://www.w3.org/2000/svg" xmlns:xlink="http://www.w3.org/1999/xlink" version="1.1" id="Capa_1" x="0px" y="0px" viewBox="0 0 512 512" style="enable-background:new 0 0 512 512;" xml:space="preserve"><g><g>
	<g>
		<path d="M451.078,108.973C379.903,37.799,268.292,27.69,185.687,84.936c-4.539,3.146-5.669,9.376-2.522,13.916    c3.146,4.539,9.376,5.667,13.915,2.523c19.204-13.309,40.146-22.578,61.752-27.926c-3.94,4.874-7.719,10.422-11.311,16.639    c-14.325,24.798-24.969,58.72-30.78,98.097c-0.807,5.463,2.969,10.546,8.433,11.353c5.458,0.799,10.546-2.969,11.353-8.433    c1.218-8.25,2.679-16.289,4.357-24.052h126.279c5.218,24.223,8.247,51.038,8.83,79h-28.004c-5.522,0-10,4.477-10,10    c0,5.522,4.478,10,10,10h28.004c-0.583,27.962-3.612,54.777-8.83,79h-49.495c-5.522,0-10,4.478-10,10c0,5.522,4.478,10,10,10    h44.517c-2.746,9.641-5.872,18.742-9.37,27.177c-12.671,30.56-28.904,49.015-45.053,51.519c-2.48,0.053-4.961,0.062-7.442,0.018    c-28.217-4.245-54.965-56.755-64.53-127.995c-0.735-5.475-5.766-9.316-11.242-8.58c-5.474,0.735-9.315,5.769-8.58,11.242    c5.469,40.732,16.037,75.948,30.562,101.841c3.817,6.805,7.852,12.837,12.07,18.096c-23.639-5.789-46.399-16.224-66.799-31.437    c-4.428-3.299-10.692-2.389-13.994,2.039c-3.302,4.427-2.389,10.692,2.039,13.994c35.846,26.73,79.455,41.079,124.141,41.086    c0.005,0,0.01,0,0.015,0c0.001,0,0.003,0,0.005,0c0.004,0,0.008,0,0.013,0c4.74,0,9.494-0.162,14.251-0.487    c50.097-3.425,97.263-24.888,132.81-60.435C490.365,363.844,512,311.611,512,256.052C512,200.493,490.365,148.26,451.078,108.973z     M491.733,246.052h-95.737c-0.558-27.744-3.442-54.505-8.419-79h82.115C482.716,191.223,490.276,218.07,491.733,246.052z     M245.864,147.052c5.169-18.181,11.608-34.208,18.975-46.96c11.935-20.661,25.842-32.04,39.16-32.04    c17.366,0,35.158,18.889,48.814,51.823c3.498,8.435,6.624,17.536,9.37,27.177H245.864z M371.289,112.215    c-6.487-15.645-13.939-28.626-22.115-38.729c32.312,8.008,62.79,24.658,87.762,49.63c7.484,7.484,14.25,15.494,20.283,23.936    h-74.302C379.618,134.611,375.732,122.929,371.289,112.215z M436.935,388.987c-24.743,24.744-55.162,41.242-87.434,49.226    c8.048-10.044,15.387-22.889,21.788-38.325c4.443-10.715,8.329-22.396,11.628-34.837h74.302    C451.187,373.494,444.421,381.504,436.935,388.987z M387.578,345.052c4.977-24.495,7.861-51.256,8.419-79h95.737    c-1.457,27.982-9.016,54.829-22.041,79H387.578z" data-original="#000000" class="active-path" data-old_color="#000000" fill="#E81935"/>
	</g>
</g><g>
	<g>
		<path d="M282.74,347.982c-1.86-1.86-4.44-2.93-7.07-2.93c-2.639,0-5.209,1.069-7.07,2.93c-1.87,1.86-2.93,4.44-2.93,7.07    s1.06,5.21,2.93,7.069c1.86,1.86,4.44,2.931,7.07,2.931s5.21-1.07,7.07-2.931c1.859-1.859,2.93-4.439,2.93-7.069    S284.599,349.842,282.74,347.982z" data-original="#000000" class="active-path" data-old_color="#000000" fill="#E81935"/>
	</g>
</g><g>
	<g>
		<path d="M311.938,249.918c-15.694-20.488-40.472-32.719-66.279-32.719h-36.305l-36.643-88.133    c-1.551-3.73-5.193-6.161-9.233-6.161h-37.761c-5.522,0-10,4.477-10,10v84.294H79.224l-25.547-30.608    c-1.9-2.276-4.713-3.592-7.678-3.592H10c-3.562,0-6.855,1.895-8.646,4.974c-1.79,3.08-1.807,6.879-0.044,9.974l33.058,58.052    L1.31,314.051c-1.763,3.095-1.746,6.895,0.044,9.974C3.144,327.105,6.437,329,10,329h36c2.965,0,5.777-1.315,7.677-3.592    L79.226,294.8h36.493v84.399c0,5.522,4.478,10,10,10h37.761c4.041,0,7.686-2.433,9.235-6.165l36.644-88.234h36.301v-0.001    c25.808,0,50.585-12.231,66.279-32.719C314.688,258.492,314.688,253.506,311.938,249.918z M135.718,142.905h21.089l30.889,74.294    h-51.978V142.905z M156.804,369.198h-21.086v-74.46h52.009L156.804,369.198z M245.661,274.799H76.098    c-0.636-0.094-1.287-0.125-1.934-0.097c-2.797,0.133-5.411,1.432-7.205,3.581l-25.638,30.716H27.202l27.363-48.052    c1.747-3.067,1.747-6.829,0-9.896l-27.363-48.052h14.119l25.638,30.716c1.799,2.156,4.422,3.456,7.228,3.582    c0.643,0.028,1.287-0.005,1.918-0.098H245.66c16.918,0,33.254,6.912,45.085,18.8C278.914,267.887,262.578,274.799,245.661,274.799    z" data-original="#000000" class="active-path" data-old_color="#000000" fill="#E81935"/>
	</g>
</g><g>
	<g>
		<path d="M18.57,125.832c-1.859-1.86-4.439-2.93-7.069-2.93s-5.21,1.07-7.07,2.93c-1.86,1.86-2.93,4.44-2.93,7.07    s1.069,5.21,2.93,7.07c1.86,1.87,4.44,2.93,7.07,2.93s5.21-1.06,7.069-2.93c1.86-1.86,2.931-4.43,2.931-7.07    C21.5,130.272,20.43,127.692,18.57,125.832z" data-original="#000000" class="active-path" data-old_color="#000000" fill="#E81935"/>
	</g>
</g><g>
	<g>
		<path d="M90.5,122.905H48c-5.522,0-10,4.477-10,10c0,5.523,4.477,10,10,10h42.5c5.522,0,10-4.477,10-10    C100.5,127.382,96.023,122.905,90.5,122.905z" data-original="#000000" class="active-path" data-old_color="#000000" fill="#E81935"/>
	</g>
</g><g>
	<g>
		<path d="M80.718,369.198H19c-5.522,0-10,4.478-10,10c0,5.522,4.478,10,10,10h61.718c5.522,0,10-4.478,10-10    C90.718,373.676,86.24,369.198,80.718,369.198z" data-original="#000000" class="active-path" data-old_color="#000000" fill="#E81935"/>
	</g>
</g></g> </svg>
